<svg width="599" height="382" viewBox="0 0 599 382" fill="none" xmlns="http://www.w3.org/2000/svg">
<path d="M387.5 0L560.272 99.75V299.25L387.5 329L214.728 299.25V99.75L387.5 0Z" fill="#F5D3CC"/>
<circle cx="487" cy="178" r="88" stroke="white" stroke-width="4"/>
<circle cx="487" cy="189" r="78" stroke="white" stroke-width="4"/>
<g filter="url(#filter0_d_81_490)">
<rect x="4" y="139" width="591" height="235" rx="20" fill="white" shape-rendering="crispEdges"/>
<path d="M79.28 222.18C76.4 222.18 74.78 221.88 74.78 221.04C74.78 220.38 75.5 220.2 77.06 220.11C77.42 219.96 77.51 218.97 77.51 216.87V205.92C77.51 204.27 77.42 202.86 77.06 202.74C75.53 202.65 74.81 202.44 74.81 201.78C74.81 200.94 76.22 200.73 78.41 200.73H80.42C81.29 200.73 83.09 200.61 84.35 200.61C90.29 200.61 92.45 203.61 92.45 207.09C92.45 211.41 88.94 214.08 84.26 214.08C83.42 214.08 82.22 214.02 81.08 213.87V216.87C81.08 218.58 81.2 219.99 81.56 220.11C83.42 220.17 84.17 220.38 84.17 221.04C84.17 221.88 82.49 222.18 79.28 222.18ZM81.08 211.83C82.07 212.01 83.03 212.07 83.87 212.07C87.2 212.07 88.67 210.39 88.67 207.45C88.67 205.02 87.77 202.62 83.78 202.62C82.91 202.62 82.07 202.71 81.44 202.89C81.14 203.19 81.08 204.27 81.08 205.95V211.83ZM97.2765 222.18C94.8465 222.18 93.4965 221.88 93.4965 221.07C93.4965 220.47 94.0965 220.29 95.2365 220.23C95.5965 220.08 95.6265 219.18 95.6265 217.08V205.92C95.6265 204.54 95.5665 202.8 95.2065 202.62C93.6165 202.53 93.1665 202.2 93.1665 201.78C93.1665 201.45 93.3465 201.21 93.7665 201C94.9365 200.43 97.0965 199.95 97.9365 199.95C98.8065 199.95 98.9865 200.52 98.9865 201.6C98.9865 202.65 98.9265 204.33 98.9265 206.46V217.08C98.9265 219.06 98.9865 220.08 99.3165 220.23C100.486 220.32 101.056 220.47 101.056 221.07C101.056 221.91 99.5865 222.18 97.2765 222.18ZM109.037 222.48C106.337 222.48 104.147 220.89 104.147 216.81V212.76C104.147 211.41 104.087 209.58 103.697 209.37C102.257 209.28 101.837 208.89 101.837 208.44C101.837 208.14 102.047 207.9 102.467 207.72C103.577 207.3 105.467 206.97 106.397 206.97C107.327 206.97 107.477 207.48 107.477 208.62C107.477 209.64 107.447 211.26 107.447 213.36V215.55C107.447 218.4 108.167 220.11 110.447 220.11C112.397 220.11 114.497 218.64 114.497 214.62V212.76C114.497 211.38 114.407 209.58 114.047 209.37C112.487 209.28 112.037 208.92 112.037 208.44C112.037 208.14 112.277 207.9 112.727 207.72C113.837 207.27 115.787 206.97 116.747 206.97C117.647 206.97 117.827 207.48 117.827 208.62C117.827 209.64 117.797 211.32 117.797 213.45V216.33C117.797 217.83 117.857 219.45 118.217 219.63C119.747 219.72 120.137 220.05 120.137 220.47C120.137 220.77 119.957 221.01 119.537 221.25C118.427 221.79 116.297 222.27 115.487 222.27C114.617 222.27 114.437 221.7 114.437 220.62L114.467 218.88C113.477 221.16 111.437 222.48 109.037 222.48ZM128.593 222.45C127.183 222.45 125.653 222.12 124.423 221.31V221.49C124.423 222 124.213 222.42 123.673 222.42C122.563 222.42 121.543 219.69 121.543 217.95C121.543 216.96 121.813 216.51 122.293 216.51C122.863 216.51 123.073 217.26 123.523 218.04C124.423 219.57 126.253 220.83 128.263 220.83C129.913 220.83 131.473 220.11 131.473 218.52C131.473 216.66 129.523 216.42 127.363 215.97C124.723 215.4 121.753 214.56 121.753 211.47C121.753 208.53 124.483 206.76 127.453 206.76C128.743 206.76 130.213 207.06 131.323 207.69V207.6C131.323 207.09 131.593 206.73 132.043 206.73C133.003 206.73 134.083 209.31 134.083 210.9C134.083 211.8 133.693 212.19 133.273 212.19C132.763 212.19 132.463 211.68 132.043 210.87C131.263 209.37 129.523 208.38 127.753 208.38C126.043 208.41 124.873 209.34 124.873 210.63C124.873 212.22 126.553 212.46 128.713 212.88C131.383 213.45 134.593 214.29 134.593 217.71C134.593 220.62 131.953 222.45 128.593 222.45ZM138.223 225.57C137.803 225.57 137.533 225.33 137.533 224.94C137.533 224.7 137.803 224.46 138.163 224.16C138.613 223.74 139.273 223.11 139.273 222.24C139.273 221.73 138.883 221.67 138.463 221.52C137.353 221.22 136.783 220.5 136.783 219.51C136.783 218.31 137.773 217.32 139.093 217.32C140.593 217.32 141.673 218.52 141.673 220.59C141.673 223.47 139.273 225.57 138.223 225.57ZM165.632 222.33C164.822 222.33 164.282 221.79 163.682 220.5C163.112 219.3 162.242 216.87 161.402 214.62C160.562 216.6 159.692 218.46 158.732 220.41C158.042 221.79 157.532 222.33 156.722 222.33C155.912 222.33 155.432 221.76 154.802 220.5C153.812 218.61 151.802 213.36 150.812 210.96C150.272 209.58 150.122 209.25 149.762 209.04C148.802 208.95 148.232 208.68 148.232 208.14C148.232 207.36 149.582 207 152.192 207C154.562 207 155.882 207.39 155.882 208.14C155.882 208.74 155.312 208.95 154.172 209.01C153.962 209.31 154.232 210.51 154.652 211.8C155.402 214.08 156.722 217.14 157.652 219.03C158.732 216.96 159.842 214.44 160.562 212.34C160.382 211.8 160.172 211.32 160.022 210.9C159.482 209.52 159.482 209.37 159.092 209.01C158.192 208.95 157.682 208.68 157.682 208.14C157.682 207.39 159.062 207 161.462 207C163.832 207 165.122 207.39 165.122 208.14C165.122 208.74 164.462 208.95 163.262 209.01C163.052 209.37 163.292 210.51 163.742 211.8C164.522 214.2 165.602 217.08 166.442 218.97C167.492 216.75 168.602 213.81 169.232 211.56C169.532 210.51 169.772 209.28 169.502 208.95C168.152 208.86 167.492 208.65 167.492 208.11C167.492 207.36 168.902 207 170.972 207C172.772 207 174.002 207.42 174.002 208.08C174.002 208.68 173.522 208.86 172.592 208.98C172.052 209.19 171.752 209.97 171.242 211.26C169.862 215.04 168.392 218.64 167.552 220.47C166.952 221.79 166.472 222.33 165.632 222.33ZM181.208 222.48C176.978 222.48 174.128 219.39 174.128 214.92C174.128 210.06 177.548 206.73 181.718 206.73C185.498 206.73 187.868 209.37 187.868 211.98C187.868 213.3 187.208 214.23 186.038 214.23H177.158C177.338 217.44 179.198 219.54 182.198 219.54C184.298 219.54 185.618 218.49 186.488 217.62C186.788 217.35 187.028 217.11 187.328 217.11C187.718 217.11 187.958 217.38 187.958 217.89C187.958 218.43 187.628 219.21 186.968 219.93C185.888 221.22 183.938 222.48 181.208 222.48ZM177.248 212.58L183.458 212.52C184.418 212.52 184.928 212.19 184.928 211.35C184.928 209.76 183.638 208.32 181.538 208.32C179.228 208.32 177.608 210 177.248 212.58ZM200.197 227.76C197.737 227.76 196.357 227.46 196.357 226.68C196.357 226.08 196.987 225.9 198.157 225.81C198.487 225.69 198.547 224.76 198.547 222.66V212.88C198.547 211.59 198.487 209.85 198.097 209.61C196.567 209.52 196.177 209.19 196.177 208.77C196.177 208.47 196.327 208.23 196.777 207.99C197.827 207.45 200.017 206.97 200.827 206.97C201.667 206.97 201.877 207.51 201.877 208.62L201.847 210.39C202.777 208.23 204.997 206.73 207.487 206.73C210.937 206.73 213.607 209.7 213.607 214.32C213.607 218.97 210.667 222.45 206.437 222.45C204.517 222.45 202.897 221.7 201.847 220.71V222.66C201.847 224.55 201.937 225.63 202.327 225.81C204.067 225.93 204.667 226.08 204.667 226.68C204.667 227.52 203.137 227.76 200.197 227.76ZM201.757 215.28C201.757 219.24 203.617 220.8 205.837 220.8C208.477 220.8 210.097 218.52 210.097 214.92C210.097 211.26 208.447 209.01 206.077 209.01C204.007 209.01 201.757 210.81 201.757 215.28ZM219.129 222.18C216.729 222.18 215.349 221.88 215.349 221.07C215.349 220.47 215.949 220.29 217.089 220.23C217.419 220.08 217.479 219.18 217.479 217.08V212.91C217.479 211.56 217.419 209.82 217.029 209.61C215.499 209.52 215.109 209.19 215.109 208.77C215.109 208.47 215.289 208.23 215.709 207.99C216.759 207.45 218.949 206.97 219.759 206.97C220.629 206.97 220.809 207.54 220.809 208.62V210.6C221.799 208.11 223.779 206.79 225.369 206.79C226.539 206.79 227.649 207.54 227.649 209.01C227.649 210.36 226.899 211.17 225.879 211.17C225.189 211.17 224.769 210.84 224.409 210.45C224.139 210.18 223.899 209.82 223.389 209.82C222.399 209.82 220.779 211.38 220.779 214.14V217.08C220.779 219.06 220.869 220.05 221.199 220.2C222.879 220.29 223.509 220.47 223.509 221.07C223.509 221.91 221.949 222.18 219.129 222.18ZM232.489 222.18C230.089 222.18 228.709 221.88 228.709 221.07C228.709 220.47 229.309 220.29 230.449 220.23C230.809 220.08 230.839 219.09 230.839 217.08V212.88C230.839 211.5 230.779 209.79 230.419 209.61C228.889 209.52 228.499 209.19 228.499 208.77C228.499 208.44 228.649 208.2 229.099 207.99C230.149 207.42 232.309 206.94 233.149 206.94C234.049 206.94 234.199 207.51 234.199 208.59C234.199 209.61 234.139 211.29 234.139 213.45V217.08C234.139 219.09 234.169 220.08 234.499 220.23C235.669 220.32 236.269 220.47 236.269 221.07C236.269 221.91 234.799 222.18 232.489 222.18ZM230.089 202.53C230.089 201.21 231.289 200.64 232.399 200.64C233.719 200.64 234.469 201.36 234.469 202.44C234.469 203.79 233.269 204.36 232.129 204.36C230.869 204.36 230.089 203.64 230.089 202.53ZM243.883 222.45C240.313 222.45 237.673 219.33 237.673 214.83C237.673 209.97 240.583 206.73 244.813 206.73C246.793 206.73 248.353 207.48 249.373 208.62V205.95C249.373 204.6 249.193 202.86 248.713 202.65C247.093 202.59 246.583 202.23 246.583 201.81C246.583 201.45 246.793 201.21 247.273 201C248.443 200.43 250.813 199.95 251.653 199.95C252.523 199.95 252.703 200.52 252.703 201.6C252.703 202.65 252.673 204.27 252.673 206.43V216.33C252.673 217.8 252.733 219.45 253.093 219.63C254.623 219.72 255.043 220.05 255.043 220.47C255.043 220.77 254.863 221.01 254.413 221.25C253.303 221.79 251.233 222.27 250.453 222.27C249.583 222.27 249.403 221.7 249.403 220.62C249.403 220.2 249.433 219.54 249.433 218.76C248.563 220.92 246.463 222.45 243.883 222.45ZM241.183 214.38C241.183 218.16 242.863 220.23 245.143 220.23C247.333 220.23 249.463 218.4 249.403 213.99C249.373 209.97 247.603 208.35 245.383 208.35C242.653 208.35 241.183 210.75 241.183 214.38ZM263.268 222.48C259.038 222.48 256.188 219.39 256.188 214.92C256.188 210.06 259.608 206.73 263.778 206.73C267.558 206.73 269.928 209.37 269.928 211.98C269.928 213.3 269.268 214.23 268.098 214.23H259.218C259.398 217.44 261.258 219.54 264.258 219.54C266.358 219.54 267.678 218.49 268.548 217.62C268.848 217.35 269.088 217.11 269.388 217.11C269.778 217.11 270.018 217.38 270.018 217.89C270.018 218.43 269.688 219.21 269.028 219.93C267.948 221.22 265.998 222.48 263.268 222.48ZM259.308 212.58L265.518 212.52C266.478 212.52 266.988 212.19 266.988 211.35C266.988 209.76 265.698 208.32 263.598 208.32C261.288 208.32 259.668 210 259.308 212.58ZM286.458 222.48C281.838 222.48 278.688 219.21 278.688 214.65C278.688 209.97 282.168 206.7 286.968 206.7C291.558 206.7 294.738 209.97 294.738 214.53C294.738 219.3 291.168 222.48 286.458 222.48ZM282.018 213.3C282.018 216.9 284.178 220.8 287.418 220.8C289.698 220.8 291.438 218.91 291.438 215.88C291.438 212.25 289.188 208.38 286.008 208.38C283.758 208.38 282.018 210.21 282.018 213.3ZM302.982 222.48C300.282 222.48 298.092 220.89 298.092 216.81V212.76C298.092 211.41 298.032 209.58 297.642 209.37C296.202 209.28 295.782 208.89 295.782 208.44C295.782 208.14 295.992 207.9 296.412 207.72C297.522 207.3 299.412 206.97 300.342 206.97C301.272 206.97 301.422 207.48 301.422 208.62C301.422 209.64 301.392 211.26 301.392 213.36V215.55C301.392 218.4 302.112 220.11 304.392 220.11C306.342 220.11 308.442 218.64 308.442 214.62V212.76C308.442 211.38 308.352 209.58 307.992 209.37C306.432 209.28 305.982 208.92 305.982 208.44C305.982 208.14 306.222 207.9 306.672 207.72C307.782 207.27 309.732 206.97 310.692 206.97C311.592 206.97 311.772 207.48 311.772 208.62C311.772 209.64 311.742 211.32 311.742 213.45V216.33C311.742 217.83 311.802 219.45 312.162 219.63C313.692 219.72 314.082 220.05 314.082 220.47C314.082 220.77 313.902 221.01 313.482 221.25C312.372 221.79 310.242 222.27 309.432 222.27C308.562 222.27 308.382 221.7 308.382 220.62L308.412 218.88C307.422 221.16 305.382 222.48 302.982 222.48ZM319.148 222.18C316.748 222.18 315.368 221.88 315.368 221.07C315.368 220.47 315.968 220.29 317.108 220.23C317.438 220.08 317.498 219.18 317.498 217.08V212.91C317.498 211.56 317.438 209.82 317.048 209.61C315.518 209.52 315.128 209.19 315.128 208.77C315.128 208.47 315.308 208.23 315.728 207.99C316.778 207.45 318.968 206.97 319.778 206.97C320.648 206.97 320.828 207.54 320.828 208.62V210.6C321.818 208.11 323.798 206.79 325.388 206.79C326.558 206.79 327.668 207.54 327.668 209.01C327.668 210.36 326.918 211.17 325.898 211.17C325.208 211.17 324.788 210.84 324.428 210.45C324.158 210.18 323.918 209.82 323.408 209.82C322.418 209.82 320.798 211.38 320.798 214.14V217.08C320.798 219.06 320.888 220.05 321.218 220.2C322.898 220.29 323.528 220.47 323.528 221.07C323.528 221.91 321.968 222.18 319.148 222.18ZM335.751 222.45C334.341 222.45 332.811 222.12 331.581 221.31V221.49C331.581 222 331.371 222.42 330.831 222.42C329.721 222.42 328.701 219.69 328.701 217.95C328.701 216.96 328.971 216.51 329.451 216.51C330.021 216.51 330.231 217.26 330.681 218.04C331.581 219.57 333.411 220.83 335.421 220.83C337.071 220.83 338.631 220.11 338.631 218.52C338.631 216.66 336.681 216.42 334.521 215.97C331.881 215.4 328.911 214.56 328.911 211.47C328.911 208.53 331.641 206.76 334.611 206.76C335.901 206.76 337.371 207.06 338.481 207.69V207.6C338.481 207.09 338.751 206.73 339.201 206.73C340.161 206.73 341.241 209.31 341.241 210.9C341.241 211.8 340.851 212.19 340.431 212.19C339.921 212.19 339.621 211.68 339.201 210.87C338.421 209.37 336.681 208.38 334.911 208.38C333.201 208.41 332.031 209.34 332.031 210.63C332.031 212.22 333.711 212.46 335.871 212.88C338.541 213.45 341.751 214.29 341.751 217.71C341.751 220.62 339.111 222.45 335.751 222.45ZM350.632 222.48C346.402 222.48 343.552 219.39 343.552 214.92C343.552 210.06 346.972 206.73 351.142 206.73C354.922 206.73 357.292 209.37 357.292 211.98C357.292 213.3 356.632 214.23 355.462 214.23H346.582C346.762 217.44 348.622 219.54 351.622 219.54C353.722 219.54 355.042 218.49 355.912 217.62C356.212 217.35 356.452 217.11 356.752 217.11C357.142 217.11 357.382 217.38 357.382 217.89C357.382 218.43 357.052 219.21 356.392 219.93C355.312 221.22 353.362 222.48 350.632 222.48ZM346.672 212.58L352.882 212.52C353.842 212.52 354.352 212.19 354.352 211.35C354.352 209.76 353.062 208.32 350.962 208.32C348.652 208.32 347.032 210 346.672 212.58ZM362.618 222.18C360.188 222.18 358.838 221.88 358.838 221.07C358.838 220.47 359.438 220.29 360.578 220.23C360.938 220.08 360.968 219.18 360.968 217.08V205.92C360.968 204.54 360.908 202.8 360.548 202.62C358.958 202.53 358.508 202.2 358.508 201.78C358.508 201.45 358.688 201.21 359.108 201C360.278 200.43 362.438 199.95 363.278 199.95C364.148 199.95 364.328 200.52 364.328 201.6C364.328 202.65 364.268 204.33 364.268 206.46V217.08C364.268 219.06 364.328 220.08 364.658 220.23C365.828 220.32 366.398 220.47 366.398 221.07C366.398 221.91 364.928 222.18 362.618 222.18ZM375.076 222.33C374.116 222.33 373.756 221.76 373.096 220.5C372.076 218.43 370.066 213.48 369.016 210.96C368.476 209.61 368.326 209.22 367.966 209.04C367.006 208.95 366.436 208.68 366.436 208.14C366.436 207.36 367.786 207 370.396 207C373.066 207 374.326 207.39 374.326 208.14C374.326 208.74 373.726 208.95 372.436 209.01C372.226 209.31 372.526 210.6 372.916 211.8C373.606 213.87 374.926 216.87 375.916 218.85C376.996 216.57 378.196 213.45 378.766 211.53C379.036 210.57 379.336 209.25 379.066 208.95C377.746 208.86 377.176 208.65 377.176 208.11C377.176 207.36 378.556 207 380.566 207C382.486 207 383.716 207.42 383.716 208.08C383.716 208.68 383.146 208.86 382.126 208.98C381.586 209.19 381.286 209.97 380.776 211.29C379.336 215.04 378.556 216.99 377.026 220.44C376.396 221.79 376.096 222.33 375.076 222.33ZM390.768 222.48C386.538 222.48 383.688 219.39 383.688 214.92C383.688 210.06 387.108 206.73 391.278 206.73C395.058 206.73 397.428 209.37 397.428 211.98C397.428 213.3 396.768 214.23 395.598 214.23H386.718C386.898 217.44 388.758 219.54 391.758 219.54C393.858 219.54 395.178 218.49 396.048 217.62C396.348 217.35 396.588 217.11 396.888 217.11C397.278 217.11 397.518 217.38 397.518 217.89C397.518 218.43 397.188 219.21 396.528 219.93C395.448 221.22 393.498 222.48 390.768 222.48ZM386.808 212.58L393.018 212.52C393.978 212.52 394.488 212.19 394.488 211.35C394.488 209.76 393.198 208.32 391.098 208.32C388.788 208.32 387.168 210 386.808 212.58ZM406.415 222.45C405.005 222.45 403.475 222.12 402.245 221.31V221.49C402.245 222 402.035 222.42 401.495 222.42C400.385 222.42 399.365 219.69 399.365 217.95C399.365 216.96 399.635 216.51 400.115 216.51C400.685 216.51 400.895 217.26 401.345 218.04C402.245 219.57 404.075 220.83 406.085 220.83C407.735 220.83 409.295 220.11 409.295 218.52C409.295 216.66 407.345 216.42 405.185 215.97C402.545 215.4 399.575 214.56 399.575 211.47C399.575 208.53 402.305 206.76 405.275 206.76C406.565 206.76 408.035 207.06 409.145 207.69V207.6C409.145 207.09 409.415 206.73 409.865 206.73C410.825 206.73 411.905 209.31 411.905 210.9C411.905 211.8 411.515 212.19 411.095 212.19C410.585 212.19 410.285 211.68 409.865 210.87C409.085 209.37 407.345 208.38 405.575 208.38C403.865 208.41 402.695 209.34 402.695 210.63C402.695 212.22 404.375 212.46 406.535 212.88C409.205 213.45 412.415 214.29 412.415 217.71C412.415 220.62 409.775 222.45 406.415 222.45ZM428.928 222.48C424.308 222.48 421.158 219.21 421.158 214.65C421.158 209.97 424.638 206.7 429.438 206.7C434.028 206.7 437.208 209.97 437.208 214.53C437.208 219.3 433.638 222.48 428.928 222.48ZM424.488 213.3C424.488 216.9 426.648 220.8 429.888 220.8C432.168 220.8 433.908 218.91 433.908 215.88C433.908 212.25 431.658 208.38 428.478 208.38C426.228 208.38 424.488 210.21 424.488 213.3ZM453.133 222.18C450.583 222.18 449.203 221.88 449.203 221.07C449.203 220.47 449.803 220.29 451.093 220.23C451.453 220.08 451.513 218.7 451.513 217.08V213.69C451.513 210.51 450.583 209.13 448.393 209.13C446.443 209.13 444.343 210.66 444.343 214.62V217.08C444.343 219.09 444.373 220.08 444.703 220.23C446.053 220.32 446.623 220.47 446.623 221.07C446.623 221.91 445.123 222.18 442.663 222.18C440.263 222.18 438.883 221.88 438.883 221.07C438.883 220.47 439.513 220.29 440.653 220.23C440.983 220.08 441.043 219.18 441.043 217.08V212.88C441.043 211.53 440.983 209.82 440.593 209.61C439.063 209.52 438.673 209.19 438.673 208.77C438.673 208.47 438.823 208.23 439.273 207.99C440.383 207.42 442.513 206.97 443.323 206.97C444.193 206.97 444.373 207.51 444.373 208.62V210.39C445.363 208.08 447.433 206.76 449.893 206.76C452.593 206.76 454.813 208.35 454.813 212.43V217.08C454.813 219.36 454.813 220.08 455.143 220.23C456.343 220.32 456.943 220.47 456.943 221.07C456.943 221.91 455.443 222.18 453.133 222.18ZM470.654 222.27C468.284 222.27 466.814 221.01 466.814 218.34L466.784 209.19H465.944C465.374 209.19 464.834 208.95 464.834 208.35C464.834 207.57 465.824 206.7 466.814 205.83C467.714 205.08 468.554 204.42 469.274 204.42C469.784 204.42 470.084 204.75 470.084 205.41V207.3H474.284C475.244 207.3 475.724 207.48 475.724 208.2C475.724 208.92 475.454 209.13 474.284 209.13H470.084V217.14C470.084 218.97 470.564 219.75 472.034 219.75C473.774 219.75 474.794 218.46 475.454 218.46C475.784 218.46 476.024 218.73 476.024 219.15C476.024 220.2 473.714 222.27 470.654 222.27ZM480.751 222.18C478.351 222.18 476.971 221.88 476.971 221.07C476.971 220.47 477.571 220.29 478.711 220.23C479.071 220.08 479.101 219.09 479.101 217.08V212.88C479.101 211.5 479.041 209.79 478.681 209.61C477.151 209.52 476.761 209.19 476.761 208.77C476.761 208.44 476.911 208.2 477.361 207.99C478.411 207.42 480.571 206.94 481.411 206.94C482.311 206.94 482.461 207.51 482.461 208.59C482.461 209.61 482.401 211.29 482.401 213.45V217.08C482.401 219.09 482.431 220.08 482.761 220.23C483.931 220.32 484.531 220.47 484.531 221.07C484.531 221.91 483.061 222.18 480.751 222.18ZM478.351 202.53C478.351 201.21 479.551 200.64 480.661 200.64C481.981 200.64 482.731 201.36 482.731 202.44C482.731 203.79 481.531 204.36 480.391 204.36C479.131 204.36 478.351 203.64 478.351 202.53ZM489.714 222.18C487.284 222.18 485.904 221.88 485.904 221.07C485.904 220.47 486.534 220.29 487.674 220.23C488.004 220.08 488.064 219.18 488.064 217.08V212.91C488.064 211.56 488.004 209.82 487.614 209.61C486.084 209.52 485.694 209.19 485.694 208.77C485.694 208.47 485.844 208.23 486.294 207.99C487.404 207.45 489.534 206.97 490.344 206.97C491.244 206.97 491.394 207.51 491.394 208.62V210.42C492.354 208.08 494.364 206.76 496.764 206.76C498.894 206.76 500.724 207.84 501.294 210.57C502.284 208.14 504.354 206.76 506.874 206.76C509.484 206.76 511.554 208.35 511.554 212.43V217.08C511.554 219.15 511.554 220.02 511.914 220.23C513.114 220.32 513.684 220.47 513.684 221.07C513.684 221.91 512.214 222.18 509.934 222.18C507.384 222.18 505.974 221.88 505.974 221.07C505.974 220.47 506.574 220.29 507.864 220.23C508.194 220.08 508.254 218.76 508.254 217.08V213.69C508.254 210.72 507.564 209.13 505.344 209.13C503.604 209.13 501.744 210.39 501.474 213.81V217.08C501.474 219 501.504 220.08 501.864 220.23C503.184 220.32 503.784 220.47 503.784 221.07C503.784 221.91 502.284 222.18 499.824 222.18C497.274 222.18 495.894 221.88 495.894 221.07C495.894 220.47 496.464 220.29 497.784 220.23C498.114 220.08 498.174 218.82 498.174 217.08V213.69C498.174 210.84 497.544 209.13 495.234 209.13C493.374 209.13 491.364 210.6 491.364 214.62V217.08C491.364 219.09 491.394 220.08 491.724 220.23C493.074 220.32 493.644 220.47 493.644 221.07C493.644 221.91 492.144 222.18 489.714 222.18ZM521.96 222.48C517.73 222.48 514.88 219.39 514.88 214.92C514.88 210.06 518.3 206.73 522.47 206.73C526.25 206.73 528.62 209.37 528.62 211.98C528.62 213.3 527.96 214.23 526.79 214.23H517.91C518.09 217.44 519.95 219.54 522.95 219.54C525.05 219.54 526.37 218.49 527.24 217.62C527.54 217.35 527.78 217.11 528.08 217.11C528.47 217.11 528.71 217.38 528.71 217.89C528.71 218.43 528.38 219.21 527.72 219.93C526.64 221.22 524.69 222.48 521.96 222.48ZM518 212.58L524.21 212.52C525.17 212.52 525.68 212.19 525.68 211.35C525.68 209.76 524.39 208.32 522.29 208.32C519.98 208.32 518.36 210 518 212.58ZM533.946 222.18C531.516 222.18 530.166 221.88 530.166 221.07C530.166 220.47 530.766 220.29 531.906 220.23C532.266 220.08 532.296 219.18 532.296 217.08V205.92C532.296 204.54 532.236 202.8 531.876 202.62C530.286 202.53 529.836 202.2 529.836 201.78C529.836 201.45 530.016 201.21 530.436 201C531.606 200.43 533.766 199.95 534.606 199.95C535.476 199.95 535.656 200.52 535.656 201.6C535.656 202.65 535.596 204.33 535.596 206.46V217.08C535.596 219.06 535.656 220.08 535.986 220.23C537.156 220.32 537.726 220.47 537.726 221.07C537.726 221.91 536.256 222.18 533.946 222.18ZM542.563 227.82C540.733 227.82 539.473 226.62 539.473 225.24C539.473 224.07 540.253 223.23 541.303 223.23C542.323 223.23 542.893 223.89 542.983 224.85C542.983 225.12 542.983 225.36 543.013 225.57C543.013 225.78 543.163 225.96 543.463 225.96C544.273 225.96 544.843 225.12 545.323 223.74C545.563 222.99 545.383 222.27 544.543 220.5C543.493 218.22 541.513 213.69 540.403 210.93C539.863 209.58 539.653 209.16 539.353 209.04C538.393 208.95 537.823 208.68 537.823 208.14C537.823 207.36 539.173 207 541.783 207C544.423 207 545.623 207.39 545.623 208.14C545.623 208.74 545.023 208.95 543.793 209.01C543.553 209.28 543.853 210.57 544.273 211.83C545.053 214.05 546.433 217.02 547.393 219C548.353 216.69 549.433 213.42 549.943 211.53C550.213 210.6 550.513 209.28 550.213 208.95C548.923 208.86 548.383 208.68 548.383 208.11C548.383 207.39 549.763 207 551.743 207C553.633 207 554.833 207.42 554.833 208.08C554.833 208.68 554.263 208.86 553.273 208.98C552.733 209.25 552.433 209.91 551.953 211.26C550.573 215.1 549.823 217.38 548.533 220.77C546.913 225.12 545.713 227.82 542.563 227.82ZM81.08 267.45C77.51 267.45 74.87 264.33 74.87 259.83C74.87 254.97 77.78 251.73 82.01 251.73C83.99 251.73 85.55 252.48 86.57 253.62V250.95C86.57 249.6 86.39 247.86 85.91 247.65C84.29 247.59 83.78 247.23 83.78 246.81C83.78 246.45 83.99 246.21 84.47 246C85.64 245.43 88.01 244.95 88.85 244.95C89.72 244.95 89.9 245.52 89.9 246.6C89.9 247.65 89.87 249.27 89.87 251.43V261.33C89.87 262.8 89.93 264.45 90.29 264.63C91.82 264.72 92.24 265.05 92.24 265.47C92.24 265.77 92.06 266.01 91.61 266.25C90.5 266.79 88.43 267.27 87.65 267.27C86.78 267.27 86.6 266.7 86.6 265.62C86.6 265.2 86.63 264.54 86.63 263.76C85.76 265.92 83.66 267.45 81.08 267.45ZM78.38 259.38C78.38 263.16 80.06 265.23 82.34 265.23C84.53 265.23 86.66 263.4 86.6 258.99C86.57 254.97 84.8 253.35 82.58 253.35C79.85 253.35 78.38 255.75 78.38 259.38ZM100.466 267.48C96.2356 267.48 93.3856 264.39 93.3856 259.92C93.3856 255.06 96.8056 251.73 100.976 251.73C104.756 251.73 107.126 254.37 107.126 256.98C107.126 258.3 106.466 259.23 105.296 259.23H96.4156C96.5956 262.44 98.4556 264.54 101.456 264.54C103.556 264.54 104.876 263.49 105.746 262.62C106.046 262.35 106.286 262.11 106.586 262.11C106.976 262.11 107.216 262.38 107.216 262.89C107.216 263.43 106.886 264.21 106.226 264.93C105.146 266.22 103.196 267.48 100.466 267.48ZM96.5056 257.58L102.716 257.52C103.676 257.52 104.186 257.19 104.186 256.35C104.186 254.76 102.896 253.32 100.796 253.32C98.4856 253.32 96.8656 255 96.5056 257.58ZM112.452 267.18C110.022 267.18 108.672 266.88 108.672 266.07C108.672 265.47 109.272 265.29 110.412 265.23C110.772 265.08 110.802 264.18 110.802 262.08V250.92C110.802 249.54 110.742 247.8 110.382 247.62C108.792 247.53 108.342 247.2 108.342 246.78C108.342 246.45 108.522 246.21 108.942 246C110.112 245.43 112.272 244.95 113.112 244.95C113.982 244.95 114.162 245.52 114.162 246.6C114.162 247.65 114.102 249.33 114.102 251.46V262.08C114.102 264.06 114.162 265.08 114.492 265.23C115.662 265.32 116.232 265.47 116.232 266.07C116.232 266.91 114.762 267.18 112.452 267.18ZM121.513 267.18C119.113 267.18 117.733 266.88 117.733 266.07C117.733 265.47 118.333 265.29 119.473 265.23C119.833 265.08 119.863 264.09 119.863 262.08V257.88C119.863 256.5 119.803 254.79 119.443 254.61C117.913 254.52 117.523 254.19 117.523 253.77C117.523 253.44 117.673 253.2 118.123 252.99C119.173 252.42 121.333 251.94 122.173 251.94C123.073 251.94 123.223 252.51 123.223 253.59C123.223 254.61 123.163 256.29 123.163 258.45V262.08C123.163 264.09 123.193 265.08 123.523 265.23C124.693 265.32 125.293 265.47 125.293 266.07C125.293 266.91 123.823 267.18 121.513 267.18ZM119.113 247.53C119.113 246.21 120.313 245.64 121.423 245.64C122.743 245.64 123.493 246.36 123.493 247.44C123.493 248.79 122.293 249.36 121.153 249.36C119.893 249.36 119.113 248.64 119.113 247.53ZM133.934 267.33C132.974 267.33 132.614 266.76 131.954 265.5C130.934 263.43 128.924 258.48 127.874 255.96C127.334 254.61 127.184 254.22 126.824 254.04C125.864 253.95 125.294 253.68 125.294 253.14C125.294 252.36 126.644 252 129.254 252C131.924 252 133.184 252.39 133.184 253.14C133.184 253.74 132.584 253.95 131.294 254.01C131.084 254.31 131.384 255.6 131.774 256.8C132.464 258.87 133.784 261.87 134.774 263.85C135.854 261.57 137.054 258.45 137.624 256.53C137.894 255.57 138.194 254.25 137.924 253.95C136.604 253.86 136.034 253.65 136.034 253.11C136.034 252.36 137.414 252 139.424 252C141.344 252 142.574 252.42 142.574 253.08C142.574 253.68 142.004 253.86 140.984 253.98C140.444 254.19 140.144 254.97 139.634 256.29C138.194 260.04 137.414 261.99 135.884 265.44C135.254 266.79 134.954 267.33 133.934 267.33ZM149.626 267.48C145.396 267.48 142.546 264.39 142.546 259.92C142.546 255.06 145.966 251.73 150.136 251.73C153.916 251.73 156.286 254.37 156.286 256.98C156.286 258.3 155.626 259.23 154.456 259.23H145.576C145.756 262.44 147.616 264.54 150.616 264.54C152.716 264.54 154.036 263.49 154.906 262.62C155.206 262.35 155.446 262.11 155.746 262.11C156.136 262.11 156.376 262.38 156.376 262.89C156.376 263.43 156.046 264.21 155.386 264.93C154.306 266.22 152.356 267.48 149.626 267.48ZM145.666 257.58L151.876 257.52C152.836 257.52 153.346 257.19 153.346 256.35C153.346 254.76 152.056 253.32 149.956 253.32C147.646 253.32 146.026 255 145.666 257.58ZM161.882 267.18C159.482 267.18 158.102 266.88 158.102 266.07C158.102 265.47 158.702 265.29 159.842 265.23C160.172 265.08 160.232 264.18 160.232 262.08V257.91C160.232 256.56 160.172 254.82 159.782 254.61C158.252 254.52 157.862 254.19 157.862 253.77C157.862 253.47 158.042 253.23 158.462 252.99C159.512 252.45 161.702 251.97 162.512 251.97C163.382 251.97 163.562 252.54 163.562 253.62V255.6C164.552 253.11 166.532 251.79 168.122 251.79C169.292 251.79 170.402 252.54 170.402 254.01C170.402 255.36 169.652 256.17 168.632 256.17C167.942 256.17 167.522 255.84 167.162 255.45C166.892 255.18 166.652 254.82 166.142 254.82C165.152 254.82 163.532 256.38 163.532 259.14V262.08C163.532 264.06 163.622 265.05 163.952 265.2C165.632 265.29 166.262 265.47 166.262 266.07C166.262 266.91 164.702 267.18 161.882 267.18ZM175.356 272.82C173.526 272.82 172.266 271.62 172.266 270.24C172.266 269.07 173.046 268.23 174.096 268.23C175.116 268.23 175.686 268.89 175.776 269.85C175.776 270.12 175.776 270.36 175.806 270.57C175.806 270.78 175.956 270.96 176.256 270.96C177.066 270.96 177.636 270.12 178.116 268.74C178.356 267.99 178.176 267.27 177.336 265.5C176.286 263.22 174.306 258.69 173.196 255.93C172.656 254.58 172.446 254.16 172.146 254.04C171.186 253.95 170.616 253.68 170.616 253.14C170.616 252.36 171.966 252 174.576 252C177.216 252 178.416 252.39 178.416 253.14C178.416 253.74 177.816 253.95 176.586 254.01C176.346 254.28 176.646 255.57 177.066 256.83C177.846 259.05 179.226 262.02 180.186 264C181.146 261.69 182.226 258.42 182.736 256.53C183.006 255.6 183.306 254.28 183.006 253.95C181.716 253.86 181.176 253.68 181.176 253.11C181.176 252.39 182.556 252 184.536 252C186.426 252 187.626 252.42 187.626 253.08C187.626 253.68 187.056 253.86 186.066 253.98C185.526 254.25 185.226 254.91 184.746 256.26C183.366 260.1 182.616 262.38 181.326 265.77C179.706 270.12 178.506 272.82 175.356 272.82ZM188.585 270.57C188.165 270.57 187.895 270.33 187.895 269.94C187.895 269.7 188.165 269.46 188.525 269.16C188.975 268.74 189.635 268.11 189.635 267.24C189.635 266.73 189.245 266.67 188.825 266.52C187.715 266.22 187.145 265.5 187.145 264.51C187.145 263.31 188.135 262.32 189.455 262.32C190.955 262.32 192.035 263.52 192.035 265.59C192.035 268.47 189.635 270.57 188.585 270.57ZM207.694 267.45C206.284 267.45 204.754 267.12 203.524 266.31V266.49C203.524 267 203.314 267.42 202.774 267.42C201.664 267.42 200.644 264.69 200.644 262.95C200.644 261.96 200.914 261.51 201.394 261.51C201.964 261.51 202.174 262.26 202.624 263.04C203.524 264.57 205.354 265.83 207.364 265.83C209.014 265.83 210.574 265.11 210.574 263.52C210.574 261.66 208.624 261.42 206.464 260.97C203.824 260.4 200.854 259.56 200.854 256.47C200.854 253.53 203.584 251.76 206.554 251.76C207.844 251.76 209.314 252.06 210.424 252.69V252.6C210.424 252.09 210.694 251.73 211.144 251.73C212.104 251.73 213.184 254.31 213.184 255.9C213.184 256.8 212.794 257.19 212.374 257.19C211.864 257.19 211.564 256.68 211.144 255.87C210.364 254.37 208.624 253.38 206.854 253.38C205.144 253.41 203.974 254.34 203.974 255.63C203.974 257.22 205.654 257.46 207.814 257.88C210.484 258.45 213.694 259.29 213.694 262.71C213.694 265.62 211.054 267.45 207.694 267.45ZM223.235 267.48C218.615 267.48 215.465 264.21 215.465 259.65C215.465 254.97 218.945 251.7 223.745 251.7C228.335 251.7 231.515 254.97 231.515 259.53C231.515 264.3 227.945 267.48 223.235 267.48ZM218.795 258.3C218.795 261.9 220.955 265.8 224.195 265.8C226.475 265.8 228.215 263.91 228.215 260.88C228.215 257.25 225.965 253.38 222.785 253.38C220.535 253.38 218.795 255.21 218.795 258.3ZM243.091 272.82C241.261 272.82 240.001 271.62 240.001 270.24C240.001 269.07 240.781 268.23 241.831 268.23C242.851 268.23 243.421 268.89 243.511 269.85C243.511 270.12 243.511 270.36 243.541 270.57C243.541 270.78 243.691 270.96 243.991 270.96C244.801 270.96 245.371 270.12 245.851 268.74C246.091 267.99 245.911 267.27 245.071 265.5C244.021 263.22 242.041 258.69 240.931 255.93C240.391 254.58 240.181 254.16 239.881 254.04C238.921 253.95 238.351 253.68 238.351 253.14C238.351 252.36 239.701 252 242.311 252C244.951 252 246.151 252.39 246.151 253.14C246.151 253.74 245.551 253.95 244.321 254.01C244.081 254.28 244.381 255.57 244.801 256.83C245.581 259.05 246.961 262.02 247.921 264C248.881 261.69 249.961 258.42 250.471 256.53C250.741 255.6 251.041 254.28 250.741 253.95C249.451 253.86 248.911 253.68 248.911 253.11C248.911 252.39 250.291 252 252.271 252C254.161 252 255.361 252.42 255.361 253.08C255.361 253.68 254.791 253.86 253.801 253.98C253.261 254.25 252.961 254.91 252.481 256.26C251.101 260.1 250.351 262.38 249.061 265.77C247.441 270.12 246.241 272.82 243.091 272.82ZM263.108 267.48C258.488 267.48 255.338 264.21 255.338 259.65C255.338 254.97 258.818 251.7 263.618 251.7C268.208 251.7 271.388 254.97 271.388 259.53C271.388 264.3 267.818 267.48 263.108 267.48ZM258.668 258.3C258.668 261.9 260.828 265.8 264.068 265.8C266.348 265.8 268.088 263.91 268.088 260.88C268.088 257.25 265.838 253.38 262.658 253.38C260.408 253.38 258.668 255.21 258.668 258.3ZM279.633 267.48C276.933 267.48 274.743 265.89 274.743 261.81V257.76C274.743 256.41 274.683 254.58 274.293 254.37C272.853 254.28 272.433 253.89 272.433 253.44C272.433 253.14 272.643 252.9 273.063 252.72C274.173 252.3 276.063 251.97 276.993 251.97C277.923 251.97 278.073 252.48 278.073 253.62C278.073 254.64 278.043 256.26 278.043 258.36V260.55C278.043 263.4 278.763 265.11 281.043 265.11C282.993 265.11 285.093 263.64 285.093 259.62V257.76C285.093 256.38 285.003 254.58 284.643 254.37C283.083 254.28 282.633 253.92 282.633 253.44C282.633 253.14 282.873 252.9 283.323 252.72C284.433 252.27 286.383 251.97 287.343 251.97C288.243 251.97 288.423 252.48 288.423 253.62C288.423 254.64 288.393 256.32 288.393 258.45V261.33C288.393 262.83 288.453 264.45 288.813 264.63C290.343 264.72 290.733 265.05 290.733 265.47C290.733 265.77 290.553 266.01 290.133 266.25C289.023 266.79 286.893 267.27 286.083 267.27C285.213 267.27 285.033 266.7 285.033 265.62L285.063 263.88C284.073 266.16 282.033 267.48 279.633 267.48ZM306.011 267.48C301.871 267.48 298.991 264.27 298.991 259.8C298.991 255.3 302.141 251.7 306.491 251.7C310.121 251.7 312.461 254.28 312.461 256.17C312.461 257.13 311.891 257.79 310.991 257.79C309.851 257.79 309.521 256.68 308.921 255.39C308.471 254.43 307.781 253.32 306.071 253.32C303.671 253.32 302.171 255.6 302.171 258.51C302.171 262.08 304.121 264.51 307.091 264.51C309.221 264.51 310.481 263.25 311.291 262.44C311.651 262.08 311.861 261.87 312.191 261.87C312.551 261.87 312.791 262.14 312.791 262.65C312.791 263.22 312.431 264.12 311.741 264.9C310.721 266.13 308.741 267.48 306.011 267.48ZM314.074 263.13C314.074 260.28 316.654 258.33 320.464 258.33C321.634 258.33 322.774 258.54 323.824 258.81V257.1C323.824 255.72 323.764 253.38 321.514 253.38C320.344 253.38 319.384 254.19 318.394 255.39C317.884 256.02 317.344 256.62 316.414 256.62C315.664 256.62 315.124 256.14 315.124 255.45C315.124 253.86 319.054 251.73 322.294 251.73C325.354 251.73 327.124 253.38 327.124 256.44V262.08C327.124 263.79 327.214 264.9 329.014 265.29C329.194 265.32 329.254 265.41 329.254 265.59C329.254 266.28 328.384 267.21 326.824 267.21C325.474 267.21 324.394 266.49 323.914 264.72C322.804 266.52 321.004 267.45 318.934 267.45C316.024 267.45 314.074 265.65 314.074 263.13ZM317.434 262.68C317.434 264.21 318.484 265.35 320.194 265.35C322.144 265.35 323.884 263.7 323.884 261.48V260.58C323.194 260.25 322.114 259.95 321.034 259.95C318.694 259.95 317.434 261.06 317.434 262.68ZM344.735 267.18C342.185 267.18 340.805 266.88 340.805 266.07C340.805 265.47 341.405 265.29 342.695 265.23C343.055 265.08 343.115 263.7 343.115 262.08V258.69C343.115 255.51 342.185 254.13 339.995 254.13C338.045 254.13 335.945 255.66 335.945 259.62V262.08C335.945 264.09 335.975 265.08 336.305 265.23C337.655 265.32 338.225 265.47 338.225 266.07C338.225 266.91 336.725 267.18 334.265 267.18C331.865 267.18 330.485 266.88 330.485 266.07C330.485 265.47 331.115 265.29 332.255 265.23C332.585 265.08 332.645 264.18 332.645 262.08V257.88C332.645 256.53 332.585 254.82 332.195 254.61C330.665 254.52 330.275 254.19 330.275 253.77C330.275 253.47 330.425 253.23 330.875 252.99C331.985 252.42 334.115 251.97 334.925 251.97C335.795 251.97 335.975 252.51 335.975 253.62V255.39C336.965 253.08 339.035 251.76 341.495 251.76C344.195 251.76 346.415 253.35 346.415 257.43V262.08C346.415 264.36 346.415 265.08 346.745 265.23C347.945 265.32 348.545 265.47 348.545 266.07C348.545 266.91 347.045 267.18 344.735 267.18ZM363.786 267.48C359.556 267.48 356.706 264.39 356.706 259.92C356.706 255.06 360.126 251.73 364.296 251.73C368.076 251.73 370.446 254.37 370.446 256.98C370.446 258.3 369.786 259.23 368.616 259.23H359.736C359.916 262.44 361.776 264.54 364.776 264.54C366.876 264.54 368.196 263.49 369.066 262.62C369.366 262.35 369.606 262.11 369.906 262.11C370.296 262.11 370.536 262.38 370.536 262.89C370.536 263.43 370.206 264.21 369.546 264.93C368.466 266.22 366.516 267.48 363.786 267.48ZM359.826 257.58L366.036 257.52C366.996 257.52 367.506 257.19 367.506 256.35C367.506 254.76 366.216 253.32 364.116 253.32C361.806 253.32 360.186 255 359.826 257.58ZM386.483 267.18C383.933 267.18 382.553 266.88 382.553 266.07C382.553 265.47 383.153 265.29 384.443 265.23C384.803 265.08 384.863 263.7 384.863 262.08V258.69C384.863 255.51 383.933 254.13 381.743 254.13C379.793 254.13 377.693 255.66 377.693 259.62V262.08C377.693 264.09 377.723 265.08 378.053 265.23C379.403 265.32 379.973 265.47 379.973 266.07C379.973 266.91 378.473 267.18 376.013 267.18C373.613 267.18 372.233 266.88 372.233 266.07C372.233 265.47 372.863 265.29 374.003 265.23C374.333 265.08 374.393 264.18 374.393 262.08V257.88C374.393 256.53 374.333 254.82 373.943 254.61C372.413 254.52 372.023 254.19 372.023 253.77C372.023 253.47 372.173 253.23 372.623 252.99C373.733 252.42 375.863 251.97 376.673 251.97C377.543 251.97 377.723 252.51 377.723 253.62V255.39C378.713 253.08 380.783 251.76 383.243 251.76C385.943 251.76 388.163 253.35 388.163 257.43V262.08C388.163 264.36 388.163 265.08 388.493 265.23C389.693 265.32 390.293 265.47 390.293 266.07C390.293 266.91 388.793 267.18 386.483 267.18ZM391.751 272.61C391.001 272.61 390.401 272.34 390.401 271.86C390.401 270.57 393.461 271.47 393.461 267.51V257.88C393.461 256.53 393.401 254.79 393.041 254.61C391.481 254.52 391.091 254.19 391.091 253.77C391.091 253.44 391.271 253.2 391.691 252.99C392.771 252.42 394.961 251.94 395.741 251.94C396.641 251.94 396.791 252.51 396.791 253.59C396.791 254.61 396.731 256.29 396.761 258.45L396.791 266.73C396.821 271.35 393.911 272.61 391.751 272.61ZM392.711 247.53C392.711 246.21 393.881 245.64 395.021 245.64C396.311 245.64 397.091 246.36 397.091 247.44C397.091 248.79 395.891 249.36 394.751 249.36C393.461 249.36 392.711 248.64 392.711 247.53ZM407.512 267.48C402.892 267.48 399.742 264.21 399.742 259.65C399.742 254.97 403.222 251.7 408.022 251.7C412.612 251.7 415.792 254.97 415.792 259.53C415.792 264.3 412.222 267.48 407.512 267.48ZM403.072 258.3C403.072 261.9 405.232 265.8 408.472 265.8C410.752 265.8 412.492 263.91 412.492 260.88C412.492 257.25 410.242 253.38 407.062 253.38C404.812 253.38 403.072 255.21 403.072 258.3ZM420.688 272.82C418.858 272.82 417.598 271.62 417.598 270.24C417.598 269.07 418.378 268.23 419.428 268.23C420.448 268.23 421.018 268.89 421.108 269.85C421.108 270.12 421.108 270.36 421.138 270.57C421.138 270.78 421.288 270.96 421.588 270.96C422.398 270.96 422.968 270.12 423.448 268.74C423.688 267.99 423.508 267.27 422.668 265.5C421.618 263.22 419.638 258.69 418.528 255.93C417.988 254.58 417.778 254.16 417.478 254.04C416.518 253.95 415.948 253.68 415.948 253.14C415.948 252.36 417.298 252 419.908 252C422.548 252 423.748 252.39 423.748 253.14C423.748 253.74 423.148 253.95 421.918 254.01C421.678 254.28 421.978 255.57 422.398 256.83C423.178 259.05 424.558 262.02 425.518 264C426.478 261.69 427.558 258.42 428.068 256.53C428.338 255.6 428.638 254.28 428.338 253.95C427.048 253.86 426.508 253.68 426.508 253.11C426.508 252.39 427.888 252 429.868 252C431.758 252 432.958 252.42 432.958 253.08C432.958 253.68 432.388 253.86 431.398 253.98C430.858 254.25 430.558 254.91 430.078 256.26C428.698 260.1 427.948 262.38 426.658 265.77C425.038 270.12 423.838 272.82 420.688 272.82ZM442.719 272.82C440.889 272.82 439.629 271.62 439.629 270.24C439.629 269.07 440.409 268.23 441.459 268.23C442.479 268.23 443.049 268.89 443.139 269.85C443.139 270.12 443.139 270.36 443.169 270.57C443.169 270.78 443.319 270.96 443.619 270.96C444.429 270.96 444.999 270.12 445.479 268.74C445.719 267.99 445.539 267.27 444.699 265.5C443.649 263.22 441.669 258.69 440.559 255.93C440.019 254.58 439.809 254.16 439.509 254.04C438.549 253.95 437.979 253.68 437.979 253.14C437.979 252.36 439.329 252 441.939 252C444.579 252 445.779 252.39 445.779 253.14C445.779 253.74 445.179 253.95 443.949 254.01C443.709 254.28 444.009 255.57 444.429 256.83C445.209 259.05 446.589 262.02 447.549 264C448.509 261.69 449.589 258.42 450.099 256.53C450.369 255.6 450.669 254.28 450.369 253.95C449.079 253.86 448.539 253.68 448.539 253.11C448.539 252.39 449.919 252 451.899 252C453.789 252 454.989 252.42 454.989 253.08C454.989 253.68 454.419 253.86 453.429 253.98C452.889 254.25 452.589 254.91 452.109 256.26C450.729 260.1 449.979 262.38 448.689 265.77C447.069 270.12 445.869 272.82 442.719 272.82ZM462.737 267.48C458.117 267.48 454.967 264.21 454.967 259.65C454.967 254.97 458.447 251.7 463.247 251.7C467.837 251.7 471.017 254.97 471.017 259.53C471.017 264.3 467.447 267.48 462.737 267.48ZM458.297 258.3C458.297 261.9 460.457 265.8 463.697 265.8C465.977 265.8 467.717 263.91 467.717 260.88C467.717 257.25 465.467 253.38 462.287 253.38C460.037 253.38 458.297 255.21 458.297 258.3ZM479.262 267.48C476.562 267.48 474.372 265.89 474.372 261.81V257.76C474.372 256.41 474.312 254.58 473.922 254.37C472.482 254.28 472.062 253.89 472.062 253.44C472.062 253.14 472.272 252.9 472.692 252.72C473.802 252.3 475.692 251.97 476.622 251.97C477.552 251.97 477.702 252.48 477.702 253.62C477.702 254.64 477.672 256.26 477.672 258.36V260.55C477.672 263.4 478.392 265.11 480.672 265.11C482.622 265.11 484.722 263.64 484.722 259.62V257.76C484.722 256.38 484.632 254.58 484.272 254.37C482.712 254.28 482.262 253.92 482.262 253.44C482.262 253.14 482.502 252.9 482.952 252.72C484.062 252.27 486.012 251.97 486.972 251.97C487.872 251.97 488.052 252.48 488.052 253.62C488.052 254.64 488.022 256.32 488.022 258.45V261.33C488.022 262.83 488.082 264.45 488.442 264.63C489.972 264.72 490.362 265.05 490.362 265.47C490.362 265.77 490.182 266.01 489.762 266.25C488.652 266.79 486.522 267.27 485.712 267.27C484.842 267.27 484.662 266.7 484.662 265.62L484.692 263.88C483.702 266.16 481.662 267.48 479.262 267.48ZM495.427 267.18C493.027 267.18 491.647 266.88 491.647 266.07C491.647 265.47 492.247 265.29 493.387 265.23C493.717 265.08 493.777 264.18 493.777 262.08V257.91C493.777 256.56 493.717 254.82 493.327 254.61C491.797 254.52 491.407 254.19 491.407 253.77C491.407 253.47 491.587 253.23 492.007 252.99C493.057 252.45 495.247 251.97 496.057 251.97C496.927 251.97 497.107 252.54 497.107 253.62V255.6C498.097 253.11 500.077 251.79 501.667 251.79C502.837 251.79 503.947 252.54 503.947 254.01C503.947 255.36 503.197 256.17 502.177 256.17C501.487 256.17 501.067 255.84 500.707 255.45C500.437 255.18 500.197 254.82 499.687 254.82C498.697 254.82 497.077 256.38 497.077 259.14V262.08C497.077 264.06 497.167 265.05 497.497 265.2C499.177 265.29 499.807 265.47 499.807 266.07C499.807 266.91 498.247 267.18 495.427 267.18ZM89.09 312.18C86.54 312.18 85.16 311.88 85.16 311.07C85.16 310.47 85.76 310.29 87.05 310.23C87.41 310.08 87.47 308.7 87.47 307.08V303.69C87.47 300.51 86.54 299.13 84.35 299.13C82.4 299.13 80.3 300.66 80.3 304.62V307.08C80.3 309.09 80.33 310.08 80.66 310.23C82.01 310.32 82.58 310.47 82.58 311.07C82.58 311.91 81.08 312.18 78.62 312.18C76.22 312.18 74.84 311.88 74.84 311.07C74.84 310.47 75.47 310.29 76.61 310.23C76.94 310.08 77 309.18 77 307.08V302.88C77 301.53 76.94 299.82 76.55 299.61C75.02 299.52 74.63 299.19 74.63 298.77C74.63 298.47 74.78 298.23 75.23 297.99C76.34 297.42 78.47 296.97 79.28 296.97C80.15 296.97 80.33 297.51 80.33 298.62V300.39C81.32 298.08 83.39 296.76 85.85 296.76C88.55 296.76 90.77 298.35 90.77 302.43V307.08C90.77 309.36 90.77 310.08 91.1 310.23C92.3 310.32 92.9 310.47 92.9 311.07C92.9 311.91 91.4 312.18 89.09 312.18ZM101.169 312.48C96.9388 312.48 94.0888 309.39 94.0888 304.92C94.0888 300.06 97.5088 296.73 101.679 296.73C105.459 296.73 107.829 299.37 107.829 301.98C107.829 303.3 107.169 304.23 105.999 304.23H97.1188C97.2988 307.44 99.1588 309.54 102.159 309.54C104.259 309.54 105.579 308.49 106.449 307.62C106.749 307.35 106.989 307.11 107.289 307.11C107.679 307.11 107.919 307.38 107.919 307.89C107.919 308.43 107.589 309.21 106.929 309.93C105.849 311.22 103.899 312.48 101.169 312.48ZM97.2088 302.58L103.419 302.52C104.379 302.52 104.889 302.19 104.889 301.35C104.889 299.76 103.599 298.32 101.499 298.32C99.1888 298.32 97.5688 300 97.2088 302.58ZM125.612 312.33C124.802 312.33 124.262 311.79 123.662 310.5C123.092 309.3 122.222 306.87 121.382 304.62C120.542 306.6 119.672 308.46 118.712 310.41C118.022 311.79 117.512 312.33 116.702 312.33C115.892 312.33 115.412 311.76 114.782 310.5C113.792 308.61 111.782 303.36 110.792 300.96C110.252 299.58 110.102 299.25 109.742 299.04C108.782 298.95 108.212 298.68 108.212 298.14C108.212 297.36 109.562 297 112.172 297C114.542 297 115.862 297.39 115.862 298.14C115.862 298.74 115.292 298.95 114.152 299.01C113.942 299.31 114.212 300.51 114.632 301.8C115.382 304.08 116.702 307.14 117.632 309.03C118.712 306.96 119.822 304.44 120.542 302.34C120.362 301.8 120.152 301.32 120.002 300.9C119.462 299.52 119.462 299.37 119.072 299.01C118.172 298.95 117.662 298.68 117.662 298.14C117.662 297.39 119.042 297 121.442 297C123.812 297 125.102 297.39 125.102 298.14C125.102 298.74 124.442 298.95 123.242 299.01C123.032 299.37 123.272 300.51 123.722 301.8C124.502 304.2 125.582 307.08 126.422 308.97C127.472 306.75 128.582 303.81 129.212 301.56C129.512 300.51 129.752 299.28 129.482 298.95C128.132 298.86 127.472 298.65 127.472 298.11C127.472 297.36 128.882 297 130.952 297C132.752 297 133.982 297.42 133.982 298.08C133.982 298.68 133.502 298.86 132.572 298.98C132.032 299.19 131.732 299.97 131.222 301.26C129.842 305.04 128.372 308.64 127.532 310.47C126.932 311.79 126.452 312.33 125.612 312.33ZM144.327 312.18C141.897 312.18 140.547 311.88 140.547 311.07C140.547 310.47 141.147 310.29 142.287 310.23C142.647 310.08 142.677 309.18 142.677 307.08V295.92C142.677 294.54 142.617 292.8 142.257 292.62C140.667 292.53 140.217 292.2 140.217 291.78C140.217 291.45 140.397 291.21 140.817 291C141.987 290.43 144.147 289.95 144.987 289.95C145.857 289.95 146.037 290.52 146.037 291.6C146.037 292.65 145.977 294.33 145.977 296.46V307.08C145.977 309.06 146.037 310.08 146.367 310.23C147.537 310.32 148.107 310.47 148.107 311.07C148.107 311.91 146.637 312.18 144.327 312.18ZM157.288 312.48C152.668 312.48 149.518 309.21 149.518 304.65C149.518 299.97 152.998 296.7 157.798 296.7C162.388 296.7 165.568 299.97 165.568 304.53C165.568 309.3 161.998 312.48 157.288 312.48ZM152.848 303.3C152.848 306.9 155.008 310.8 158.248 310.8C160.528 310.8 162.268 308.91 162.268 305.88C162.268 302.25 160.018 298.38 156.838 298.38C154.588 298.38 152.848 300.21 152.848 303.3ZM175.012 312.48C170.392 312.48 167.242 309.21 167.242 304.65C167.242 299.97 170.722 296.7 175.522 296.7C180.112 296.7 183.292 299.97 183.292 304.53C183.292 309.3 179.722 312.48 175.012 312.48ZM170.572 303.3C170.572 306.9 172.732 310.8 175.972 310.8C178.252 310.8 179.992 308.91 179.992 305.88C179.992 302.25 177.742 298.38 174.562 298.38C172.312 298.38 170.572 300.21 170.572 303.3ZM188.417 312.18C185.987 312.18 184.607 311.88 184.607 311.07C184.607 310.47 185.207 310.29 186.347 310.23C186.707 310.08 186.767 309.18 186.767 307.05V295.83C186.767 294.45 186.677 292.8 186.257 292.62C184.667 292.56 184.217 292.2 184.217 291.78C184.217 291.45 184.397 291.21 184.817 291C186.017 290.43 188.207 289.95 189.047 289.95C189.917 289.95 190.097 290.52 190.097 291.6C190.097 292.65 190.067 294.24 190.067 296.37V304.02L191.927 302.49C193.067 301.5 194.027 300.63 194.537 300.03C194.927 299.55 195.077 299.13 194.867 298.98C193.937 298.92 193.217 298.74 193.217 298.14C193.217 297.39 194.477 297 197.327 297C200.057 297 201.437 297.36 201.437 298.14C201.437 298.71 200.687 298.98 199.307 299.13C198.167 299.34 197.537 299.82 194.537 302.34C196.037 304.83 197.537 307.38 198.887 309.12C199.517 309.93 199.817 310.14 200.117 310.23C201.737 310.29 202.307 310.47 202.307 311.01C202.307 311.76 201.047 312.18 199.127 312.18C197.867 312.18 197.117 312 196.667 311.46C195.767 310.5 193.907 307.29 192.137 304.32C191.357 305.01 190.667 305.61 190.067 306.18V307.08C190.067 309.09 190.097 310.08 190.427 310.23C191.807 310.32 192.407 310.44 192.407 311.07C192.407 311.91 190.877 312.18 188.417 312.18ZM225.368 312.33C224.558 312.33 224.018 311.79 223.418 310.5C222.848 309.3 221.978 306.87 221.138 304.62C220.298 306.6 219.428 308.46 218.468 310.41C217.778 311.79 217.268 312.33 216.458 312.33C215.648 312.33 215.168 311.76 214.538 310.5C213.548 308.61 211.538 303.36 210.548 300.96C210.008 299.58 209.858 299.25 209.498 299.04C208.538 298.95 207.968 298.68 207.968 298.14C207.968 297.36 209.318 297 211.928 297C214.298 297 215.618 297.39 215.618 298.14C215.618 298.74 215.048 298.95 213.908 299.01C213.698 299.31 213.968 300.51 214.388 301.8C215.138 304.08 216.458 307.14 217.388 309.03C218.468 306.96 219.578 304.44 220.298 302.34C220.118 301.8 219.908 301.32 219.758 300.9C219.218 299.52 219.218 299.37 218.828 299.01C217.928 298.95 217.418 298.68 217.418 298.14C217.418 297.39 218.798 297 221.198 297C223.568 297 224.858 297.39 224.858 298.14C224.858 298.74 224.198 298.95 222.998 299.01C222.788 299.37 223.028 300.51 223.478 301.8C224.258 304.2 225.338 307.08 226.178 308.97C227.228 306.75 228.338 303.81 228.968 301.56C229.268 300.51 229.508 299.28 229.238 298.95C227.888 298.86 227.228 298.65 227.228 298.11C227.228 297.36 228.638 297 230.708 297C232.508 297 233.738 297.42 233.738 298.08C233.738 298.68 233.258 298.86 232.328 298.98C231.788 299.19 231.488 299.97 230.978 301.26C229.598 305.04 228.128 308.64 227.288 310.47C226.688 311.79 226.208 312.33 225.368 312.33ZM238.231 312.18C235.831 312.18 234.451 311.88 234.451 311.07C234.451 310.47 235.051 310.29 236.191 310.23C236.551 310.08 236.581 309.09 236.581 307.08V302.88C236.581 301.5 236.521 299.79 236.161 299.61C234.631 299.52 234.241 299.19 234.241 298.77C234.241 298.44 234.391 298.2 234.841 297.99C235.891 297.42 238.051 296.94 238.891 296.94C239.791 296.94 239.941 297.51 239.941 298.59C239.941 299.61 239.881 301.29 239.881 303.45V307.08C239.881 309.09 239.911 310.08 240.241 310.23C241.411 310.32 242.011 310.47 242.011 311.07C242.011 311.91 240.541 312.18 238.231 312.18ZM235.831 292.53C235.831 291.21 237.031 290.64 238.141 290.64C239.461 290.64 240.211 291.36 240.211 292.44C240.211 293.79 239.011 294.36 237.871 294.36C236.611 294.36 235.831 293.64 235.831 292.53ZM248.965 312.27C246.595 312.27 245.125 311.01 245.125 308.34L245.095 299.19H244.255C243.685 299.19 243.145 298.95 243.145 298.35C243.145 297.57 244.135 296.7 245.125 295.83C246.025 295.08 246.865 294.42 247.585 294.42C248.095 294.42 248.395 294.75 248.395 295.41V297.3H252.595C253.555 297.3 254.035 297.48 254.035 298.2C254.035 298.92 253.765 299.13 252.595 299.13H248.395V307.14C248.395 308.97 248.875 309.75 250.345 309.75C252.085 309.75 253.105 308.46 253.765 308.46C254.095 308.46 254.335 308.73 254.335 309.15C254.335 310.2 252.025 312.27 248.965 312.27ZM258.612 312.18C256.212 312.18 254.832 311.88 254.832 311.07C254.832 310.47 255.432 310.29 256.572 310.23C256.932 310.08 256.992 309.18 256.992 307.08V295.83C256.992 294.45 256.872 292.8 256.482 292.62C254.892 292.53 254.442 292.2 254.442 291.78C254.442 291.45 254.622 291.21 255.042 291C256.242 290.4 258.462 289.95 259.272 289.95C260.142 289.95 260.322 290.52 260.322 291.6C260.322 292.65 260.292 294.24 260.292 296.37V300.42C261.282 298.08 263.382 296.73 265.842 296.73C268.542 296.73 270.732 298.32 270.732 302.4V307.08C270.732 309.15 270.732 310.02 271.092 310.23C272.262 310.32 272.862 310.47 272.862 311.07C272.862 311.91 271.392 312.18 269.112 312.18C266.562 312.18 265.152 311.88 265.152 311.07C265.152 310.47 265.752 310.29 267.042 310.23C267.402 310.08 267.432 308.73 267.432 307.08V303.66C267.432 300.48 266.532 299.13 264.342 299.13C262.392 299.13 260.292 300.6 260.292 304.62V307.08C260.292 309.09 260.322 310.08 260.652 310.23C262.002 310.32 262.542 310.47 262.542 311.07C262.542 311.91 261.072 312.18 258.612 312.18ZM281.829 312.48C277.209 312.48 274.059 309.21 274.059 304.65C274.059 299.97 277.539 296.7 282.339 296.7C286.929 296.7 290.109 299.97 290.109 304.53C290.109 309.3 286.539 312.48 281.829 312.48ZM277.389 303.3C277.389 306.9 279.549 310.8 282.789 310.8C285.069 310.8 286.809 308.91 286.809 305.88C286.809 302.25 284.559 298.38 281.379 298.38C279.129 298.38 277.389 300.21 277.389 303.3ZM298.353 312.48C295.653 312.48 293.463 310.89 293.463 306.81V302.76C293.463 301.41 293.403 299.58 293.013 299.37C291.573 299.28 291.153 298.89 291.153 298.44C291.153 298.14 291.363 297.9 291.783 297.72C292.893 297.3 294.783 296.97 295.713 296.97C296.643 296.97 296.793 297.48 296.793 298.62C296.793 299.64 296.763 301.26 296.763 303.36V305.55C296.763 308.4 297.483 310.11 299.763 310.11C301.713 310.11 303.813 308.64 303.813 304.62V302.76C303.813 301.38 303.723 299.58 303.363 299.37C301.803 299.28 301.353 298.92 301.353 298.44C301.353 298.14 301.593 297.9 302.043 297.72C303.153 297.27 305.103 296.97 306.063 296.97C306.963 296.97 307.143 297.48 307.143 298.62C307.143 299.64 307.113 301.32 307.113 303.45V306.33C307.113 307.83 307.173 309.45 307.533 309.63C309.063 309.72 309.453 310.05 309.453 310.47C309.453 310.77 309.273 311.01 308.853 311.25C307.743 311.79 305.613 312.27 304.803 312.27C303.933 312.27 303.753 311.7 303.753 310.62L303.783 308.88C302.793 311.16 300.753 312.48 298.353 312.48ZM316.289 312.27C313.919 312.27 312.449 311.01 312.449 308.34L312.419 299.19H311.579C311.009 299.19 310.469 298.95 310.469 298.35C310.469 297.57 311.459 296.7 312.449 295.83C313.349 295.08 314.189 294.42 314.909 294.42C315.419 294.42 315.719 294.75 315.719 295.41V297.3H319.919C320.879 297.3 321.359 297.48 321.359 298.2C321.359 298.92 321.089 299.13 319.919 299.13H315.719V307.14C315.719 308.97 316.199 309.75 317.669 309.75C319.409 309.75 320.429 308.46 321.089 308.46C321.419 308.46 321.659 308.73 321.659 309.15C321.659 310.2 319.349 312.27 316.289 312.27ZM335.728 312.45C332.158 312.45 329.518 309.33 329.518 304.83C329.518 299.97 332.428 296.73 336.658 296.73C338.638 296.73 340.198 297.48 341.218 298.62V295.95C341.218 294.6 341.038 292.86 340.558 292.65C338.938 292.59 338.428 292.23 338.428 291.81C338.428 291.45 338.638 291.21 339.118 291C340.288 290.43 342.658 289.95 343.498 289.95C344.368 289.95 344.548 290.52 344.548 291.6C344.548 292.65 344.518 294.27 344.518 296.43V306.33C344.518 307.8 344.578 309.45 344.938 309.63C346.468 309.72 346.888 310.05 346.888 310.47C346.888 310.77 346.708 311.01 346.258 311.25C345.148 311.79 343.078 312.27 342.298 312.27C341.428 312.27 341.248 311.7 341.248 310.62C341.248 310.2 341.278 309.54 341.278 308.76C340.408 310.92 338.308 312.45 335.728 312.45ZM333.028 304.38C333.028 308.16 334.708 310.23 336.988 310.23C339.178 310.23 341.308 308.4 341.248 303.99C341.218 299.97 339.448 298.35 337.228 298.35C334.498 298.35 333.028 300.75 333.028 304.38ZM355.114 312.48C350.884 312.48 348.034 309.39 348.034 304.92C348.034 300.06 351.454 296.73 355.624 296.73C359.404 296.73 361.774 299.37 361.774 301.98C361.774 303.3 361.114 304.23 359.944 304.23H351.064C351.244 307.44 353.104 309.54 356.104 309.54C358.204 309.54 359.524 308.49 360.394 307.62C360.694 307.35 360.934 307.11 361.234 307.11C361.624 307.11 361.864 307.38 361.864 307.89C361.864 308.43 361.534 309.21 360.874 309.93C359.794 311.22 357.844 312.48 355.114 312.48ZM351.154 302.58L357.364 302.52C358.324 302.52 358.834 302.19 358.834 301.35C358.834 299.76 357.544 298.32 355.444 298.32C353.134 298.32 351.514 300 351.154 302.58ZM367.101 312.18C364.671 312.18 363.321 311.88 363.321 311.07C363.321 310.47 363.921 310.29 365.061 310.23C365.421 310.08 365.451 309.18 365.451 307.08V295.92C365.451 294.54 365.391 292.8 365.031 292.62C363.441 292.53 362.991 292.2 362.991 291.78C362.991 291.45 363.171 291.21 363.591 291C364.761 290.43 366.921 289.95 367.761 289.95C368.631 289.95 368.811 290.52 368.811 291.6C368.811 292.65 368.751 294.33 368.751 296.46V307.08C368.751 309.06 368.811 310.08 369.141 310.23C370.311 310.32 370.881 310.47 370.881 311.07C370.881 311.91 369.411 312.18 367.101 312.18ZM372.111 308.13C372.111 305.28 374.691 303.33 378.501 303.33C379.671 303.33 380.811 303.54 381.861 303.81V302.1C381.861 300.72 381.801 298.38 379.551 298.38C378.381 298.38 377.421 299.19 376.431 300.39C375.921 301.02 375.381 301.62 374.451 301.62C373.701 301.62 373.161 301.14 373.161 300.45C373.161 298.86 377.091 296.73 380.331 296.73C383.391 296.73 385.161 298.38 385.161 301.44V307.08C385.161 308.79 385.251 309.9 387.051 310.29C387.231 310.32 387.291 310.41 387.291 310.59C387.291 311.28 386.421 312.21 384.861 312.21C383.511 312.21 382.431 311.49 381.951 309.72C380.841 311.52 379.041 312.45 376.971 312.45C374.061 312.45 372.111 310.65 372.111 308.13ZM375.471 307.68C375.471 309.21 376.521 310.35 378.231 310.35C380.181 310.35 381.921 308.7 381.921 306.48V305.58C381.231 305.25 380.151 304.95 379.071 304.95C376.731 304.95 375.471 306.06 375.471 307.68ZM391.509 317.82C389.679 317.82 388.419 316.62 388.419 315.24C388.419 314.07 389.199 313.23 390.249 313.23C391.269 313.23 391.839 313.89 391.929 314.85C391.929 315.12 391.929 315.36 391.959 315.57C391.959 315.78 392.109 315.96 392.409 315.96C393.219 315.96 393.789 315.12 394.269 313.74C394.509 312.99 394.329 312.27 393.489 310.5C392.439 308.22 390.459 303.69 389.349 300.93C388.809 299.58 388.599 299.16 388.299 299.04C387.339 298.95 386.769 298.68 386.769 298.14C386.769 297.36 388.119 297 390.729 297C393.369 297 394.569 297.39 394.569 298.14C394.569 298.74 393.969 298.95 392.739 299.01C392.499 299.28 392.799 300.57 393.219 301.83C393.999 304.05 395.379 307.02 396.339 309C397.299 306.69 398.379 303.42 398.889 301.53C399.159 300.6 399.459 299.28 399.159 298.95C397.869 298.86 397.329 298.68 397.329 298.11C397.329 297.39 398.709 297 400.689 297C402.579 297 403.779 297.42 403.779 298.08C403.779 298.68 403.209 298.86 402.219 298.98C401.679 299.25 401.379 299.91 400.899 301.26C399.519 305.1 398.769 307.38 397.479 310.77C395.859 315.12 394.659 317.82 391.509 317.82ZM405.667 312.21C404.287 312.21 403.267 311.07 403.267 309.72C403.267 308.34 404.287 307.2 405.667 307.2C407.017 307.2 408.037 308.34 408.037 309.72C408.037 311.07 407.017 312.21 405.667 312.21Z" fill="#161616"/>
</g>
<defs>
<filter id="filter0_d_81_490" x="0" y="139" width="599" height="243" filterUnits="userSpaceOnUse" color-interpolation-filters="sRGB">
<feFlood flood-opacity="0" result="BackgroundImageFix"/>
<feColorMatrix in="SourceAlpha" type="matrix" values="0 0 0 0 0 0 0 0 0 0 0 0 0 0 0 0 0 0 127 0" result="hardAlpha"/>
<feOffset dy="4"/>
<feGaussianBlur stdDeviation="2"/>
<feComposite in2="hardAlpha" operator="out"/>
<feColorMatrix type="matrix" values="0 0 0 0 0 0 0 0 0 0 0 0 0 0 0 0 0 0 0.05 0"/>
<feBlend mode="normal" in2="BackgroundImageFix" result="effect1_dropShadow_81_490"/>
<feBlend mode="normal" in="SourceGraphic" in2="effect1_dropShadow_81_490" result="shape"/>
</filter>
</defs>
</svg>
