<svg width="33" height="33" viewBox="0 0 33 33" fill="none" xmlns="http://www.w3.org/2000/svg">
<rect width="33" height="33" rx="16.5" fill="#1D1615"/>
<path d="M12.9805 7.10064L12.0996 7.35721C11.3153 7.58591 10.6148 8.02647 10.0807 8.62706C9.54656 9.22764 9.20101 9.96325 9.08469 10.7473C8.7198 13.2037 9.53558 16.0759 11.5025 19.3698C13.4646 22.6554 15.6244 24.7721 18.0018 25.6986C18.7656 25.9962 19.6018 26.0756 20.4109 25.9271C21.22 25.7786 21.968 25.4087 22.566 24.8612L23.2318 24.2506C23.6642 23.855 23.9334 23.321 23.9892 22.7479C24.045 22.1748 23.8837 21.6017 23.5353 21.1349L21.8693 18.9018C21.6441 18.6003 21.3269 18.3745 20.9623 18.2561C20.5977 18.1377 20.2039 18.1325 19.836 18.2414L17.3162 18.9861L17.2511 18.998C16.9734 19.0372 16.3321 18.4564 15.5335 17.1189C14.6981 15.7196 14.5261 14.9012 14.7558 14.6897L16.0373 13.534C16.5054 13.1113 16.8251 12.5578 16.9518 11.9508C17.0785 11.3438 17.0057 10.7137 16.7437 10.1486L15.9304 8.40132C15.6858 7.87552 15.2518 7.45364 14.7093 7.21433C14.1668 6.97502 13.5516 6.93462 12.9805 7.10064ZM14.8124 8.88834L15.6232 10.6356C15.7806 10.9746 15.8244 11.3525 15.7487 11.7167C15.6729 12.0809 15.4813 12.4131 15.2006 12.6668L13.9155 13.8238C13.0923 14.5769 13.3651 15.8621 14.4708 17.7128C15.5102 19.4541 16.4587 20.3141 17.4784 20.1645L17.6307 20.1336L20.196 19.3769C20.3186 19.3405 20.45 19.3421 20.5716 19.3815C20.6932 19.4209 20.799 19.4962 20.8742 19.5967L22.5402 21.8298C22.7146 22.0632 22.7954 22.3498 22.7676 22.6365C22.7398 22.9232 22.6053 23.1903 22.389 23.3883L21.7219 23.9988C21.2948 24.3896 20.7606 24.6537 20.1828 24.7596C19.605 24.8655 19.0079 24.8088 18.4625 24.5963C16.3763 23.7838 14.4045 21.8512 12.5677 18.7759C10.7261 15.6935 9.98033 13.0719 10.301 10.916C10.384 10.3558 10.6308 9.83027 11.0124 9.40118C11.3939 8.97209 11.8943 8.65733 12.4547 8.49397L13.3356 8.2374C13.6212 8.15443 13.9282 8.17472 14.1995 8.29449C14.4708 8.41425 14.6877 8.62532 14.8099 8.88834" fill="white"/>
</svg>
