<svg width="100" height="100" viewBox="0 0 100 100" fill="none" xmlns="http://www.w3.org/2000/svg">
<circle cx="50" cy="50" r="50" fill="#F1EBE6"/>
<path d="M60.377 47.0879C60.9922 47.7031 61.8184 48.0371 62.6914 48.0371C63.5645 48.0371 64.3906 47.6973 65.0059 47.0879L71.8086 40.3262C72.4238 39.7109 72.7637 38.8965 72.7637 38.0234C72.7637 37.1504 72.4238 36.3359 71.8086 35.7207L64.5898 28.5488C63.3535 27.3242 61.1973 27.3242 59.9609 28.5488L53.1641 35.3105C52.5488 35.9258 52.209 36.7402 52.209 37.6133C52.209 38.4863 52.5488 39.3008 53.1641 39.916L60.377 47.0879ZM55.1445 37.2793L61.9473 30.5176C62.0645 30.4004 62.2051 30.3828 62.2754 30.3828C62.3457 30.3828 62.4863 30.4004 62.6035 30.5176L69.8223 37.6953C69.9395 37.8125 69.957 37.9531 69.957 38.0234C69.957 38.0938 69.9395 38.2344 69.8223 38.3516L63.0254 45.1133C62.9082 45.2305 62.7676 45.248 62.6973 45.248C62.627 45.248 62.4863 45.2305 62.3691 45.1133L55.1445 37.9414C55.0273 37.8242 55.0098 37.6836 55.0098 37.6133C55.0098 37.543 55.0273 37.3965 55.1445 37.2793ZM38.5215 54.4766C37.2852 53.252 35.123 53.252 33.8926 54.4766L32.9961 55.3672C32.0996 56.2637 31.1504 57.8516 30.7988 59.0645L27.8047 69.3008C27.5527 70.1563 27.6641 70.9531 28.1152 71.5508C28.5254 72.0957 29.1816 72.4063 29.9141 72.4063C30.207 72.4063 30.5176 72.3594 30.8281 72.2598L41.5156 68.9727C42.7227 68.6035 44.3105 67.6484 45.2012 66.7637L45.7285 66.2422C46.3438 65.627 46.6836 64.8125 46.6836 63.9395C46.6836 63.0664 46.3438 62.252 45.7285 61.6367L38.5215 54.4766ZM43.748 64.2734L43.2207 64.7949C42.6582 65.3574 41.4512 66.0781 40.6895 66.3125L34.2969 68.2754L31.877 65.375L33.4941 59.8496C33.7168 59.0938 34.4258 57.8984 34.9824 57.3477L35.8789 56.457C35.9961 56.3398 36.1367 56.3223 36.207 56.3223C36.2773 56.3223 36.418 56.3398 36.5352 56.457L43.7422 63.623C43.8594 63.7402 43.877 63.8809 43.877 63.9512C43.8828 64.0215 43.8652 64.1621 43.748 64.2734ZM38.9844 28.5488C37.748 27.3242 35.5918 27.3242 34.3555 28.5488L27.1426 35.7207C26.5273 36.3359 26.1875 37.1504 26.1875 38.0234C26.1875 38.8965 26.5273 39.7109 27.1426 40.3262L59.9668 72.9629C60.582 73.5781 61.4082 73.9121 62.2812 73.9121C63.1543 73.9121 63.9805 73.5723 64.5957 72.9629L71.8145 65.7852C72.4297 65.1699 72.7695 64.3555 72.7695 63.4824C72.7695 62.6094 72.4297 61.7949 71.8145 61.1797L38.9844 28.5488ZM69.8223 63.8106L62.6094 70.9883C62.4922 71.1055 62.3516 71.123 62.2812 71.123C62.2109 71.123 62.0703 71.1055 61.9531 70.9883L29.1289 38.3516C29.0117 38.2344 28.9941 38.0938 28.9941 38.0234C28.9941 37.9531 29.0117 37.8125 29.1289 37.6953L36.3418 30.5176C36.459 30.4004 36.5996 30.3828 36.6699 30.3828C36.7402 30.3828 36.8809 30.4004 36.998 30.5176L37.9766 31.4902L34.6309 34.8242C34.0801 35.3691 34.0801 36.2539 34.6309 36.7988C34.9062 37.0684 35.2637 37.209 35.6211 37.209C35.9785 37.209 36.3418 37.0742 36.6113 36.7988L39.9629 33.4648L41.5918 35.0879L40.1445 36.5293C39.5996 37.0742 39.5996 37.959 40.1445 38.5039C40.4199 38.7734 40.7773 38.9141 41.1348 38.9141C41.4922 38.9141 41.8555 38.7793 42.125 38.5039L43.5723 37.0625L45.2012 38.6855L41.8496 42.0195C41.2988 42.5645 41.2988 43.4492 41.8496 43.9941C42.125 44.2637 42.4824 44.4043 42.8398 44.4043C43.1973 44.4043 43.5547 44.2695 43.8301 43.9941L47.1816 40.6602L48.8164 42.2832L47.3691 43.7246C46.8242 44.2695 46.8242 45.1543 47.3691 45.6992C47.6445 45.9746 48.002 46.1094 48.3594 46.1094C48.7168 46.1094 49.0801 45.9746 49.3496 45.6992L50.7969 44.2578L52.4316 45.8809L49.0801 49.2148C48.5352 49.7598 48.5352 50.6445 49.0801 51.1895C49.3555 51.459 49.7129 51.5996 50.0703 51.5996C50.4277 51.5996 50.791 51.4648 51.0605 51.1895L54.4121 47.8555L56.0469 49.4785L54.5996 50.9199C54.0547 51.4648 54.0547 52.3496 54.5996 52.8945C54.875 53.1699 55.2324 53.3047 55.5898 53.3047C55.9473 53.3047 56.3105 53.1699 56.5801 52.8945L58.0273 51.4531L59.6562 53.0762L56.3047 56.4102C55.7539 56.9551 55.7539 57.8398 56.3047 58.3848C56.5801 58.6602 56.9375 58.7949 57.2949 58.7949C57.6523 58.7949 58.0098 58.6602 58.2852 58.3848L61.6367 55.0508L63.2656 56.6738L61.8184 58.1152C61.2734 58.6602 61.2734 59.5449 61.8184 60.0898C62.0938 60.3594 62.4512 60.5 62.8086 60.5C63.166 60.5 63.5293 60.3652 63.7988 60.0898L65.2461 58.6484L66.8809 60.2715L63.5293 63.6055C62.9785 64.1504 62.9785 65.0352 63.5293 65.5801C63.8047 65.8496 64.1621 65.9902 64.5195 65.9902C64.877 65.9902 65.2402 65.8555 65.5098 65.5801L68.8613 62.2461L69.793 63.1777C69.9102 63.2949 69.9277 63.4355 69.9277 63.5059C69.9277 63.5762 69.9395 63.6934 69.8223 63.8106Z" fill="#444444"/>
</svg>
