<svg width="21" height="20" viewBox="0 0 21 20" fill="none" xmlns="http://www.w3.org/2000/svg">
<path d="M6.43056 0C3.36278 0 0.875 2.48778 0.875 5.55556V14.4444C0.875 17.5122 3.36278 20 6.43056 20H15.3194C18.3872 20 20.875 17.5122 20.875 14.4444V5.55556C20.875 2.48778 18.3872 0 15.3194 0H6.43056ZM17.5417 2.22222C18.155 2.22222 18.6528 2.72 18.6528 3.33333C18.6528 3.94667 18.155 4.44444 17.5417 4.44444C16.9283 4.44444 16.4306 3.94667 16.4306 3.33333C16.4306 2.72 16.9283 2.22222 17.5417 2.22222ZM10.875 4.44444C13.9428 4.44444 16.4306 6.93222 16.4306 10C16.4306 13.0678 13.9428 15.5556 10.875 15.5556C7.80722 15.5556 5.31944 13.0678 5.31944 10C5.31944 6.93222 7.80722 4.44444 10.875 4.44444ZM10.875 6.66667C9.99095 6.66667 9.1431 7.01786 8.51798 7.64298C7.89286 8.2681 7.54167 9.11595 7.54167 10C7.54167 10.8841 7.89286 11.7319 8.51798 12.357C9.1431 12.9821 9.99095 13.3333 10.875 13.3333C11.7591 13.3333 12.6069 12.9821 13.232 12.357C13.8571 11.7319 14.2083 10.8841 14.2083 10C14.2083 9.11595 13.8571 8.2681 13.232 7.64298C12.6069 7.01786 11.7591 6.66667 10.875 6.66667Z" fill="#1D1615"/>
</svg>
