<svg width="26" height="20" viewBox="0 0 26 20" fill="none" xmlns="http://www.w3.org/2000/svg">
<path d="M25.4904 2.35978C24.5689 2.76843 23.6434 3.07692 22.6178 3.18109C23.6434 2.5641 24.4647 1.53846 24.8734 0.408654C23.8478 1.02564 22.8221 1.4343 21.6963 1.64263C20.6707 0.616988 19.3365 0 17.9022 0C15.1298 0 12.8742 2.25561 12.8742 5.02404C12.8742 5.4367 12.8742 5.84535 12.9784 6.15385C8.77164 5.94952 5.08173 3.9984 2.61779 0.921475C2.10497 1.64263 1.90064 2.5641 1.90064 3.48558C1.90064 5.23237 2.82212 6.77083 4.15625 7.69231C3.33494 7.58814 2.51763 7.38382 1.90064 7.07532C1.90064 7.07532 1.90064 7.07532 1.90064 7.17949C1.90064 9.63942 3.64343 11.6907 5.89904 12.1034C5.49039 12.2035 5.08173 12.3077 4.56891 12.3077C4.26042 12.3077 3.95192 12.3077 3.64343 12.2035C4.26042 14.2548 6.10737 15.6931 8.36298 15.6931C6.62019 17.0272 4.46474 17.8446 2.10497 17.8446C1.69631 17.8446 1.28365 17.8446 0.875 17.7444C3.13061 19.1787 5.79888 20 8.56731 20C17.9022 20 22.9263 12.3077 22.9263 5.64103C22.9263 5.4367 22.9263 5.23237 22.9263 5.02404C23.9519 4.30689 24.7732 3.38542 25.4904 2.35978Z" fill="#1D1615"/>
</svg>
