<svg width="30" height="30" viewBox="0 0 30 30" fill="none" xmlns="http://www.w3.org/2000/svg">
<circle cx="15.0001" cy="15" r="15" fill="white"/>
<path fill-rule="evenodd" clip-rule="evenodd" d="M12.1977 7.045C13.0262 7.00818 13.2904 7 15.4009 7C17.5115 7 17.7756 7.00886 18.6034 7.045C19.4313 7.08114 19.9963 7.20864 20.4908 7.39341C21.0085 7.58227 21.4782 7.8775 21.8667 8.25932C22.2622 8.63364 22.5674 9.08636 22.7623 9.58682C22.9544 10.0641 23.0858 10.6095 23.124 11.4073C23.1621 12.2084 23.1706 12.4634 23.1706 14.5C23.1706 16.5373 23.1614 16.7923 23.124 17.592C23.0865 18.3898 22.9544 18.9352 22.7623 19.4125C22.5674 19.913 22.2617 20.3665 21.8667 20.7414C21.4782 21.1232 21.0085 21.4177 20.4908 21.6059C19.9963 21.7914 19.4313 21.9182 18.6049 21.955C17.7756 21.9918 17.5115 22 15.4009 22C13.2904 22 13.0262 21.9911 12.1977 21.955C11.3713 21.9189 10.8062 21.7914 10.3118 21.6059C9.79331 21.4177 9.32353 21.1227 8.93517 20.7414C8.5399 20.3668 8.23401 19.9136 8.03884 19.4132C7.84742 18.9359 7.71605 18.3905 7.6779 17.5927C7.63976 16.7916 7.63129 16.5366 7.63129 14.5C7.63129 12.4627 7.64047 12.2077 7.6779 11.4086C7.71534 10.6095 7.84742 10.0641 8.03884 9.58682C8.2343 9.08642 8.54042 8.63317 8.93588 8.25864C9.32369 7.87716 9.793 7.58189 10.3111 7.39341C10.8055 7.20864 11.3706 7.08182 12.197 7.045H12.1977ZM18.5406 8.395C17.7212 8.35886 17.4754 8.35136 15.4009 8.35136C13.3264 8.35136 13.0806 8.35886 12.2613 8.395C11.5034 8.42841 11.0923 8.55045 10.8183 8.65341C10.4559 8.78977 10.1967 8.95136 9.92475 9.21386C9.66697 9.45594 9.46858 9.75065 9.34414 10.0764C9.23748 10.3409 9.11105 10.7377 9.07644 11.4693C9.03901 12.2602 9.03124 12.4975 9.03124 14.5C9.03124 16.5025 9.03901 16.7398 9.07644 17.5307C9.11105 18.2623 9.23748 18.6591 9.34414 18.9236C9.46846 19.2489 9.66693 19.5441 9.92475 19.7861C10.1755 20.035 10.4813 20.2266 10.8183 20.3466C11.0923 20.4495 11.5034 20.5716 12.2613 20.605C13.0806 20.6411 13.3257 20.6486 15.4009 20.6486C17.4761 20.6486 17.7212 20.6411 18.5406 20.605C19.2985 20.5716 19.7096 20.4495 19.9836 20.3466C20.346 20.2102 20.6052 20.0486 20.8771 19.7861C21.1349 19.5441 21.3334 19.2489 21.4577 18.9236C21.5644 18.6591 21.6908 18.2623 21.7254 17.5307C21.7629 16.7398 21.7706 16.5025 21.7706 14.5C21.7706 12.4975 21.7629 12.2602 21.7254 11.4693C21.6908 10.7377 21.5644 10.3409 21.4577 10.0764C21.3165 9.72659 21.1491 9.47636 20.8771 9.21386C20.6263 8.96505 20.321 8.77355 19.9836 8.65341C19.7096 8.55045 19.2985 8.42841 18.5406 8.395ZM14.4085 16.812C14.9628 17.0347 15.5799 17.0648 16.1545 16.8971C16.7292 16.7294 17.2257 16.3743 17.5592 15.8924C17.8928 15.4106 18.0427 14.832 17.9833 14.2553C17.924 13.6786 17.6591 13.1398 17.2339 12.7307C16.9628 12.4692 16.635 12.269 16.2742 12.1444C15.9133 12.0199 15.5284 11.9741 15.147 12.0104C14.7656 12.0467 14.3973 12.1642 14.0687 12.3544C13.74 12.5446 13.459 12.8028 13.2461 13.1104C13.0332 13.4179 12.8936 13.7672 12.8373 14.1332C12.781 14.4991 12.8095 14.8725 12.9207 15.2265C13.0318 15.5805 13.2229 15.9063 13.4802 16.1805C13.7375 16.4547 14.0545 16.6704 14.4085 16.812ZM12.577 11.7741C12.9479 11.4161 13.3881 11.1322 13.8726 10.9384C14.3572 10.7447 14.8765 10.645 15.4009 10.645C15.9254 10.645 16.4447 10.7447 16.9292 10.9384C17.4138 11.1322 17.854 11.4161 18.2248 11.7741C18.5957 12.1321 18.8899 12.557 19.0906 13.0247C19.2913 13.4925 19.3946 13.9938 19.3946 14.5C19.3946 15.0062 19.2913 15.5075 19.0906 15.9753C18.8899 16.443 18.5957 16.8679 18.2248 17.2259C17.4759 17.9489 16.4601 18.355 15.4009 18.355C14.3418 18.355 13.326 17.9489 12.577 17.2259C11.8281 16.503 11.4073 15.5224 11.4073 14.5C11.4073 13.4776 11.8281 12.497 12.577 11.7741ZM20.2803 11.2191C20.3722 11.1354 20.4457 11.0348 20.4966 10.9232C20.5475 10.8115 20.5747 10.6912 20.5765 10.5693C20.5784 10.4473 20.5548 10.3263 20.5073 10.2133C20.4599 10.1003 20.3894 9.99762 20.3 9.91139C20.2107 9.82516 20.1043 9.75711 19.9873 9.71126C19.8702 9.66542 19.7448 9.64271 19.6185 9.64449C19.4922 9.64627 19.3675 9.67249 19.2519 9.72161C19.1362 9.77073 19.032 9.84175 18.9453 9.93045C18.7767 10.103 18.6844 10.3321 18.688 10.5693C18.6916 10.8064 18.7908 11.0329 18.9645 11.2006C19.1382 11.3683 19.3728 11.464 19.6185 11.4675C19.8642 11.4709 20.1016 11.3818 20.2803 11.2191Z" fill="#011C2A"/>
</svg>
