<svg width="32" height="32" viewBox="0 0 32 32" fill="none" xmlns="http://www.w3.org/2000/svg">
<rect width="32" height="32" rx="16" fill="#1D1615"/>
<path d="M12.205 10.75C12.2048 11.1478 12.0465 11.5293 11.7651 11.8105C11.4836 12.0916 11.102 12.2495 10.7042 12.2493C10.3064 12.2491 9.92493 12.0908 9.64377 11.8094C9.3626 11.528 9.20476 11.1463 9.20496 10.7485C9.20516 10.3507 9.36338 9.96924 9.64483 9.68808C9.92627 9.40691 10.3079 9.24907 10.7057 9.24927C11.1035 9.24947 11.485 9.40769 11.7661 9.68914C12.0473 9.97058 12.2052 10.3522 12.205 10.75ZM12.25 13.36H9.24996V22.75H12.25V13.36ZM16.99 13.36H14.005V22.75H16.96V17.8225C16.96 15.0775 20.5375 14.8225 20.5375 17.8225V22.75H23.5V16.8025C23.5 12.175 18.205 12.3475 16.96 14.62L16.99 13.36Z" fill="white"/>
</svg>
