<svg width="21" height="21" viewBox="0 0 21 21" fill="none" xmlns="http://www.w3.org/2000/svg">
<path d="M18.4572 0.399902H2.09357C1.08903 0.399902 0.275391 1.21354 0.275391 2.21808V18.5817C0.275391 19.5863 1.08903 20.3999 2.09357 20.3999H11.1845V12.2181H8.45721V9.49081H11.1845V8.02627C11.1845 5.25354 12.5354 4.03627 14.8399 4.03627C15.9436 4.03627 16.5272 4.11808 16.8036 4.15536V6.76354H15.2318C14.2536 6.76354 13.9118 7.2799 13.9118 8.32536V9.49081H16.779L16.3899 12.2181H13.9118V20.3999H18.4572C19.4618 20.3999 20.2754 19.5863 20.2754 18.5817V2.21808C20.2754 1.21354 19.4608 0.399902 18.4572 0.399902Z" fill="#1D1615"/>
</svg>
