<svg width="100" height="100" viewBox="0 0 100 100" fill="none" xmlns="http://www.w3.org/2000/svg">
<circle cx="50" cy="50" r="50" fill="#F1EBE6"/>
<path d="M76.25 70.0925C76.22 68.7275 76.2237 67.3625 76.22 65.9937C76.2125 65.225 75.6275 64.5987 74.8831 64.4843C74.8156 64.0737 74.5906 63.7212 74.2606 63.4831C74.2325 62.3318 74.2194 61.1825 74.2044 60.0312C74.1856 58.4581 74.1706 56.8831 74.1612 55.3062C74.1387 52.2125 73.9887 49.1206 73.9812 46.0268C73.9775 43.3381 74.0225 40.6512 73.955 37.9662C73.925 36.7006 73.8819 35.4275 73.8162 34.1618C73.775 33.3912 73.6906 32.6318 73.5819 31.865C73.49 31.2256 73.2669 30.5656 72.9181 30.0275C72.53 29.4256 72.0894 28.8537 71.5906 28.3362C71.3262 28.0606 70.9719 27.9312 70.61 27.8993C70.4094 27.8037 70.1937 27.7381 69.9594 27.725C69.5 27.6987 69.0462 27.7025 68.5869 27.71C68.3375 27.71 68.0881 27.7137 67.8425 27.71C67.1206 27.7025 66.4006 27.6837 65.6769 27.6593C64.1544 27.6068 62.6281 27.5712 61.1019 27.53C58.8087 27.4643 56.5156 27.4681 54.2225 27.4718C53.4594 27.4718 52.6962 27.4718 51.9331 27.4681C48.8919 27.4568 45.8525 27.4643 42.815 27.395C41.2512 27.3575 39.6931 27.2993 38.1331 27.2487C36.6312 27.1981 35.1312 27.1681 33.635 27.0987C32.0787 27.0293 30.5187 27.0143 28.9606 27.0068H28.955C28.1431 27.0068 27.4681 27.6912 27.4681 28.4993C27.4681 28.5106 27.4756 28.5218 27.4756 28.5331C27.0294 29.0656 26.6037 29.6318 26.5006 30.3312C26.435 30.7812 26.3769 31.2368 26.3394 31.6925C26.285 32.3337 26.3 32.9862 26.3075 33.6293C26.3187 34.9531 26.3281 36.2787 26.3281 37.6025C26.3281 38.9637 26.3281 40.3287 26.3825 41.6862C26.4369 43.07 26.5662 44.4406 26.6019 45.8243C26.6206 46.4693 26.6244 47.12 26.6394 47.765C26.645 48.0668 26.7612 48.3331 26.9206 48.5675C26.9862 49.1075 27.3331 49.5593 27.8262 49.7525C27.83 49.865 27.815 49.9737 27.8412 50.0862C27.9406 50.5231 28.055 50.9562 28.1375 51.395C28.1581 51.7587 28.1281 52.115 28.2162 52.4825C28.355 53.0918 28.8575 53.5287 29.4275 53.7256C29.795 53.8512 30.2131 53.8325 30.5975 53.8325C31.58 53.8325 32.5569 53.7443 33.5412 53.7631C33.5037 54.9425 33.4756 56.1481 33.6706 57.3125C33.7812 57.9425 34.4769 58.3831 35.0787 58.3831C35.3394 58.3831 35.585 58.3137 35.8119 58.1843C36.1062 58.0118 36.4325 57.6631 36.4831 57.3106C36.5562 56.8193 36.575 56.3487 36.5675 55.8537C36.5581 55.1806 36.5956 54.5112 36.6294 53.8418C37.6269 53.8775 38.6356 54.0368 39.6331 53.9675C40.04 53.9375 40.4 53.825 40.6944 53.5268C40.7112 53.51 40.7187 53.4837 40.7356 53.465C41.5812 53.4331 42.2525 52.7375 42.2619 51.8956C42.2694 51.26 42.2506 50.6225 42.2319 49.985C42.3162 49.985 42.4006 49.9887 42.485 49.9887C42.5019 49.9887 42.5169 49.9793 42.5337 49.9793C42.7531 50.0131 42.98 50.0075 43.1956 49.9493C44.0244 49.7187 44.5269 48.8337 44.3 48.005C44.1631 47.5081 44.0862 46.9962 44.0206 46.4825C45.0725 46.4675 46.1244 46.4487 47.1762 46.445C47.9056 46.4412 48.6369 46.4375 49.3662 46.4562C49.9775 46.4731 50.5887 46.505 51.2019 46.5275C51.2375 47.6806 51.275 48.8318 51.3181 49.9831C51.3725 51.4662 51.3481 52.9475 51.38 54.4306C51.41 55.88 51.4606 57.3293 51.5112 58.7787C51.5581 60.155 51.6575 61.5275 51.6575 62.9075C51.6575 63.0087 51.6575 63.1081 51.6575 63.2093C49.5744 63.2243 47.4894 63.2431 45.4062 63.2468C43.88 63.2506 42.3537 63.2768 40.8275 63.305C39.26 63.3387 37.7019 63.4306 36.1381 63.5075C32.6712 63.6837 29.2006 63.7025 25.7281 63.8562C25.1112 63.8843 24.5731 64.2462 24.3462 64.7881C24.1119 65.0712 23.9956 65.3918 23.9656 65.7687C23.8419 67.3456 23.7406 68.9412 23.75 70.5218C23.7519 71.0918 24.0912 71.5831 24.5656 71.8456C24.7494 72.4868 25.325 73.0381 26.0225 72.9893C29.3506 72.7587 32.6712 72.4868 36.0069 72.3987C37.49 72.3593 38.9712 72.38 40.4544 72.38C42.0106 72.38 43.5612 72.3687 45.1175 72.3406C48.2956 72.2862 51.4719 72.245 54.65 72.2018C57.7512 72.1625 60.8431 72.1175 63.9444 72.1512C65.6506 72.1662 67.3569 72.1662 69.0631 72.1737C70.7431 72.185 72.4137 72.0537 74.0937 72.0237C74.5194 72.0162 74.9 71.8287 75.1737 71.5381C75.7887 71.3318 76.2669 70.7656 76.25 70.0925ZM37.355 50.9656C36.5656 50.9656 35.7744 50.9262 34.985 50.9075C34.175 50.8887 33.3631 50.8812 32.5494 50.885C32.1219 50.885 31.6906 50.8887 31.2612 50.8756C31.2125 50.5343 31.1394 50.2006 31.0737 49.8631C31.1319 49.8631 31.1919 49.8631 31.25 49.8631C32.81 49.8556 34.3644 49.8481 35.9281 49.8818C36.9875 49.9062 38.045 49.9287 39.1044 49.9475C39.1269 50.2906 39.1325 50.6337 39.1344 50.9768C38.54 50.9825 37.9456 50.9656 37.355 50.9656ZM54.3481 59.3656C54.29 57.8975 54.2862 56.4293 54.275 54.9631C54.2562 51.9575 54.2337 48.9575 54.2131 45.9556C54.2131 45.7493 54.2094 45.5412 54.2094 45.335C54.1981 44.5025 53.5194 43.8087 52.6831 43.8087C52.6006 43.8087 52.5237 43.8443 52.4431 43.8575C52.235 43.7412 52.0062 43.6568 51.755 43.6475C50.2437 43.5968 48.7344 43.5593 47.2194 43.5556C45.59 43.5518 43.9606 43.5031 42.3312 43.4975H42.3256C41.51 43.4975 40.8275 44.1856 40.8275 45.005C40.8275 45.065 40.8556 45.1175 40.8631 45.1756C40.7169 45.5225 40.6981 45.86 40.7581 46.2462C40.7975 46.5125 40.8425 46.7787 40.8856 47.0468C40.4019 47.0506 39.9162 47.0618 39.4325 47.0675C38.3019 47.0825 37.1694 47.0975 36.0387 47.0787C33.86 47.045 31.6812 47.0037 29.5025 46.9662C29.4537 45.7493 29.3919 44.5306 29.315 43.3118C29.2269 41.9318 29.2381 40.5481 29.2381 39.1662C29.2381 37.775 29.2381 36.3893 29.2569 34.9981C29.2719 33.7681 29.2344 32.5362 29.3562 31.3062C29.3581 31.2781 29.3619 31.25 29.3656 31.2218C29.3844 31.0981 29.4087 30.9743 29.4369 30.8506C29.5944 30.5581 29.7875 30.2918 29.9937 30.0181C29.9994 30.0106 29.9975 29.9993 30.0012 29.99C31.3006 29.9806 32.6 29.9693 33.8975 30.0143C35.4087 30.0706 36.92 30.08 38.4294 30.125C41.4744 30.2131 44.5231 30.275 47.57 30.3125C50.6337 30.35 53.6975 30.35 56.7612 30.3781C58.2725 30.3931 59.7819 30.4006 61.2894 30.4512C62.8156 30.5056 64.3419 30.605 65.8681 30.6612C66.5431 30.6875 67.2144 30.7137 67.8894 30.7306C68.4144 30.7475 68.9394 30.7587 69.4625 30.7775C69.6294 30.9537 69.7925 31.1337 69.9481 31.325C70.0944 31.5162 70.2444 31.7075 70.3606 31.9175C70.4825 32.2868 70.5687 32.66 70.64 33.0462C70.7956 34.4225 70.8462 35.8025 70.9212 37.1843C71.0019 38.7181 71.0487 40.2556 71.06 41.7968C71.0825 44.8306 71.1012 47.87 71.21 50.9037C71.2531 52.1037 71.3094 53.3037 71.3375 54.5037C71.3637 55.6381 71.36 56.7706 71.3637 57.905C71.3675 59.6693 71.3787 61.4337 71.375 63.2C68.9562 63.2206 66.5375 63.2075 64.1187 63.2018C62.5456 63.1981 60.9706 63.1643 59.3937 63.1643C57.845 63.1643 56.2962 63.1756 54.7456 63.1943C54.6481 63.1943 54.5506 63.1943 54.4512 63.1962C54.4344 61.9175 54.4025 60.6425 54.3481 59.3656ZM65.1181 69.1925C62 69.2112 58.88 69.2543 55.7619 69.3125C52.5875 69.3743 49.4187 69.4156 46.2444 69.4156C44.7031 69.4193 43.1619 69.4118 41.6206 69.4043C40.1337 69.3968 38.6525 69.4418 37.1656 69.4737C35.3487 69.5112 33.5337 69.5393 31.7169 69.6031C30.0819 69.6631 28.4487 69.7625 26.8156 69.8656C26.8231 68.8456 26.8831 67.8237 26.9712 66.8056C29.8737 66.665 32.7762 66.5431 35.6787 66.4175C37.1825 66.3518 38.6844 66.2487 40.1881 66.215C41.7912 66.1775 43.3981 66.1531 45.0012 66.1343C46.6606 66.1118 48.3181 66.1193 49.9775 66.1231C51.3969 66.1306 52.8219 66.1343 54.245 66.1193C57.3594 66.0893 60.4756 66.0762 63.59 66.1343C65.1894 66.1681 66.7887 66.1775 68.3937 66.1737C69.215 66.1737 70.0419 66.17 70.8631 66.1812C71.6131 66.1887 72.3631 66.2206 73.1112 66.2393C73.1281 67.1787 73.1525 68.1181 73.1637 69.0575C71.9956 69.0931 70.8294 69.1475 69.6612 69.1662C68.1444 69.1925 66.6331 69.1812 65.1181 69.1925ZM56.5775 38.8381C56.7387 38.5775 56.8719 38.3131 56.9919 38.03C57.1494 37.6568 57.2787 37.2968 57.3594 36.8975C57.425 36.5675 57.4812 36.23 57.4625 35.8925C57.4437 35.5475 57.3631 35.21 57.2525 34.8837C57.1306 34.5162 56.9769 34.1431 56.7575 33.8187C56.5156 33.47 56.2437 33.125 55.8706 32.9075C55.64 32.7706 55.3962 32.6618 55.1469 32.5662C54.8581 32.2718 54.4512 32.0918 54.0069 32.06C53.7406 32.0412 53.4781 32.0318 53.2156 32.0318C52.5612 32.0318 51.9181 32.0975 51.2731 32.285C50.5512 32.495 49.9194 32.9131 49.3944 33.4437C49.0962 33.7475 48.8544 34.1225 48.62 34.4787C48.2862 34.985 48.0069 35.525 47.9075 36.125C47.75 37.0868 47.9506 38.12 48.5431 38.9056C48.9106 39.3968 49.31 39.7718 49.82 40.1206C50.1762 40.3625 50.6206 40.5237 51.0162 40.6681C52.0831 41.0543 53.195 40.8631 54.2562 40.5725C55.235 40.3043 56.0394 39.7025 56.5775 38.8381ZM54.4644 36.0743C54.41 36.3462 54.3387 36.6068 54.245 36.8656C54.1362 37.0775 54.0181 37.2781 53.8869 37.4768C53.8625 37.5031 53.8381 37.5275 53.8137 37.5537C53.7387 37.6025 53.6637 37.6456 53.585 37.6887C53.2737 37.7862 52.9587 37.8631 52.6362 37.9212C52.4994 37.9306 52.3681 37.9306 52.235 37.925C52.0962 37.8912 51.9612 37.8518 51.8262 37.8068C51.665 37.7262 51.5094 37.6418 51.3575 37.5443C51.2581 37.4487 51.1644 37.3493 51.0744 37.2481C51.0294 37.1787 50.9881 37.1093 50.9487 37.0381C50.9375 36.9987 50.9262 36.9593 50.9169 36.9218C50.9131 36.845 50.9112 36.7662 50.9112 36.6875C50.93 36.6125 50.9506 36.5393 50.9712 36.4643C51.1025 36.2093 51.2637 35.9712 51.4344 35.7387C51.5356 35.6262 51.6369 35.5193 51.7475 35.4143C51.815 35.3693 51.8844 35.3262 51.9556 35.285C52.1131 35.2343 52.2706 35.195 52.4337 35.1612C52.8725 35.1293 53.3037 35.1462 53.7406 35.1781C53.9056 35.2512 54.065 35.3281 54.2206 35.4162C54.2637 35.4856 54.305 35.5568 54.3444 35.63C54.3912 35.7687 54.4325 35.9075 54.4644 36.0481C54.4644 36.0537 54.4644 36.065 54.4644 36.0743ZM60.4419 40.0006C60.8487 40.3193 61.2669 40.5406 61.7656 40.6868C61.9681 40.745 62.18 40.775 62.39 40.8106C62.9112 40.8987 63.4437 40.9531 63.9706 40.9137C64.6419 40.8631 65.2512 40.6643 65.8644 40.3962C66.1644 40.265 66.4512 40.0362 66.6969 39.8281C67.0081 39.5637 67.2406 39.2637 67.4862 38.9393C67.8087 38.5175 68.0262 38.0337 68.1987 37.5331C68.2831 37.2837 68.3487 37.0268 68.4087 36.7662C68.6037 35.8868 68.4819 34.9906 67.94 34.2612C67.7131 33.9537 67.4637 33.6743 67.1919 33.4025C66.7194 32.9337 66.1062 32.6731 65.4856 32.4593C65.3431 32.4106 65.1987 32.3937 65.0544 32.3993C64.82 32.1987 64.475 32.0187 64.16 32.0187C64.1281 32.0187 64.0981 32.0206 64.0662 32.0243C62.9619 32.1593 61.7881 32.2981 60.9331 33.095C60.3819 33.6012 59.9319 34.1806 59.5869 34.8481C59.4069 35.2006 59.2531 35.5737 59.1237 35.9525C58.8706 36.6893 58.9081 37.4637 59.1275 38.2043C59.3412 38.9225 59.8606 39.5468 60.4419 40.0006ZM62.1631 36.5131C62.3244 36.1643 62.5025 35.8268 62.7219 35.5118C62.8194 35.4012 62.9187 35.2962 63.0275 35.1968C63.0387 35.1912 63.0481 35.1837 63.0594 35.1781C63.3012 35.1068 63.545 35.0562 63.7962 35.0131C63.8862 35.0018 63.9781 34.9906 64.0681 34.9812C64.1825 34.9681 64.2912 34.9531 64.3944 34.9306C64.505 34.9962 64.625 35.0506 64.7544 35.0993C64.7862 35.1125 64.8181 35.1256 64.85 35.1387C64.9869 35.2043 65.12 35.2737 65.2494 35.3543C65.3919 35.4912 65.525 35.6356 65.6506 35.7875C65.6712 35.8175 65.69 35.8475 65.7087 35.8775C65.7087 35.915 65.7087 35.9506 65.7087 35.9881C65.6506 36.2581 65.5625 36.5243 65.4706 36.785C65.3694 36.9856 65.255 37.175 65.1256 37.3568C65.0225 37.4731 64.9137 37.5837 64.7956 37.6887C64.7075 37.7468 64.6175 37.8031 64.5219 37.8537C64.3175 37.9231 64.1094 37.9756 63.8975 38.0168C63.6912 38.03 63.4887 38.0243 63.2825 38.0075C63.0087 37.9568 62.7369 37.8968 62.4706 37.8068C62.4519 37.7975 62.4312 37.7862 62.4125 37.775C62.2887 37.6587 62.1725 37.5368 62.0619 37.4112C62.06 37.4075 62.0562 37.4037 62.0544 37.4C62.0356 37.3306 62.0169 37.2631 62.0019 37.1937C62 37.145 62 37.0962 62 37.0493C62.045 36.8675 62.0994 36.6893 62.1631 36.5131ZM64.9287 52.9925C64.9287 53.8625 64.2031 54.5881 63.3331 54.5881C62.4631 54.5881 61.7375 53.8625 61.7375 52.9925C61.7375 52.1225 62.465 51.3968 63.3331 51.3968C64.2012 51.395 64.9287 52.1225 64.9287 52.9925ZM64.8462 57.5356C64.8462 58.4018 64.1244 59.1237 63.2581 59.1237C62.3919 59.1237 61.67 58.4018 61.67 57.5356C61.67 56.6693 62.3919 55.9475 63.2581 55.9475C64.1225 55.9475 64.8462 56.6693 64.8462 57.5356Z" fill="#444444"/>
</svg>
