<svg width="33" height="33" viewBox="0 0 33 33" fill="none" xmlns="http://www.w3.org/2000/svg">
<rect width="33" height="33" rx="16.5" fill="#1D1615"/>
<path d="M22.8611 9.5H10.1389C9.57163 9.5 9.02759 9.73236 8.62647 10.146C8.22535 10.5595 8 11.1205 8 11.7054V21.2946C8 21.8795 8.22535 22.4405 8.62647 22.854C9.02759 23.2676 9.57163 23.5 10.1389 23.5H22.8611C23.4284 23.5 23.9724 23.2676 24.3735 22.854C24.7747 22.4405 25 21.8795 25 21.2946V11.7054C25 11.1205 24.7747 10.5595 24.3735 10.146C23.9724 9.73236 23.4284 9.5 22.8611 9.5ZM10.1389 10.3822H22.8611C23.1849 10.3814 23.4968 10.5077 23.7336 10.7355C23.9703 10.9632 24.1142 11.2753 24.1359 11.6084C22.0226 12.7728 19.9009 13.9285 17.7791 15.0929C17.4925 15.2793 17.1887 15.4359 16.8722 15.5605C16.624 15.6112 16.3682 15.6067 16.1218 15.5474C15.8754 15.488 15.6441 15.3752 15.4434 15.2164C14.2285 14.5548 13.0136 13.8844 11.8072 13.2227C10.8319 12.6934 9.83946 12.1553 8.86412 11.6172C8.88376 11.2825 9.02669 10.9683 9.26366 10.7387C9.50063 10.5091 9.81374 10.3816 10.1389 10.3822ZM24.1444 21.2946C24.1444 21.6455 24.0092 21.9821 23.7686 22.2303C23.5279 22.4784 23.2015 22.6178 22.8611 22.6178H10.1389C9.79854 22.6178 9.47212 22.4784 9.23144 22.2303C8.99077 21.9821 8.85556 21.6455 8.85556 21.2946V12.6185C10.8747 13.7124 12.8853 14.8239 14.9044 15.9266C15.265 16.1548 15.6534 16.3328 16.0594 16.4559C16.6535 16.5557 17.2624 16.4269 17.7705 16.0942C19.0111 15.4238 20.2431 14.7445 21.4836 14.074C22.3734 13.58 23.2547 13.1037 24.1444 12.6185V21.2946Z" fill="white"/>
</svg>
