<svg width="21" height="20" viewBox="0 0 21 20" fill="none" xmlns="http://www.w3.org/2000/svg">
<path d="M18.4943 0H3.2562C1.94191 0 0.875244 1.06667 0.875244 2.38095V17.619C0.875244 18.9333 1.94191 20 3.2562 20H18.4943C19.8086 20 20.8752 18.9333 20.8752 17.619V2.38095C20.8752 1.06667 19.8086 0 18.4943 0ZM7.06572 7.61905V16.6667H4.20858V7.61905H7.06572ZM4.20858 4.98571C4.20858 4.31905 4.78001 3.80952 5.63715 3.80952C6.49429 3.80952 7.03239 4.31905 7.06572 4.98571C7.06572 5.65238 6.53239 6.19048 5.63715 6.19048C4.78001 6.19048 4.20858 5.65238 4.20858 4.98571ZM17.5419 16.6667H14.6848C14.6848 16.6667 14.6848 12.2571 14.6848 11.9048C14.6848 10.9524 14.2086 10 13.0181 9.98095H12.98C11.8276 9.98095 11.3514 10.9619 11.3514 11.9048C11.3514 12.3381 11.3514 16.6667 11.3514 16.6667H8.49429V7.61905H11.3514V8.83809C11.3514 8.83809 12.2705 7.61905 14.1181 7.61905C16.0086 7.61905 17.5419 8.91905 17.5419 11.5524V16.6667Z" fill="#1D1615"/>
</svg>
