<svg width="17" height="16" viewBox="0 0 17 16" fill="none" xmlns="http://www.w3.org/2000/svg">
<path d="M14.2795 16H14.1749C2.08706 15.3046 0.37077 5.10154 0.130859 1.9877C0.111528 1.74559 0.140141 1.50205 0.215059 1.27102C0.289977 1.04 0.409726 0.826036 0.567446 0.641387C0.725165 0.456739 0.917756 0.305039 1.13419 0.194979C1.35062 0.0849182 1.58663 0.0186598 1.8287 5.73863e-07H5.21821C5.46462 -0.000237403 5.70541 0.0735453 5.90942 0.211793C6.11342 0.350041 6.27123 0.546383 6.3624 0.775387L7.29744 3.07693C7.38748 3.30065 7.40983 3.5459 7.36172 3.78221C7.31357 4.01853 7.19711 4.2355 7.02677 4.40616L5.71649 5.72924C5.92116 6.89278 6.47817 7.96532 7.31214 8.8018C8.14614 9.63836 9.2168 10.1984 10.3793 10.4062L11.7143 9.08305C11.8874 8.91457 12.1064 8.80082 12.3437 8.75595C12.5811 8.71108 12.8265 8.73708 13.0492 8.83075L15.3683 9.76C15.5938 9.85413 15.7862 10.0132 15.9209 10.217C16.0556 10.4209 16.1267 10.6602 16.125 10.9046V14.1539C16.125 14.6435 15.9305 15.113 15.5844 15.4593C15.2383 15.8055 14.7689 16 14.2795 16ZM1.97633 1.23077C1.81318 1.23077 1.65671 1.29561 1.54135 1.41101C1.42598 1.52642 1.36118 1.68294 1.36118 1.84615V1.89539C1.64414 5.53847 3.45886 14.1539 14.2425 14.7693C14.3234 14.7743 14.4044 14.7632 14.481 14.7368C14.5575 14.7105 14.6281 14.6692 14.6887 14.6155C14.7492 14.5618 14.7986 14.4966 14.834 14.4237C14.8693 14.3508 14.8899 14.2716 14.8946 14.1908V10.9046L12.5755 9.97539L10.81 11.7292L10.5147 11.6923C5.16285 11.0216 4.43696 5.6677 4.43696 5.61232L4.40005 5.31693L6.1471 3.55078L5.22436 1.23077H1.97633Z" fill="#1D1615"/>
</svg>
