<svg width="50" height="50" viewBox="0 0 50 50" fill="none" xmlns="http://www.w3.org/2000/svg">
<path fill-rule="evenodd" clip-rule="evenodd" d="M12.4807 17.3359C13.9887 15.7459 14.5227 15.2999 15.1647 15.0939C15.6096 14.9769 16.0764 14.97 16.5247 15.0739C17.1147 15.2459 17.2687 15.3759 19.2047 17.3019C20.9046 18.9939 21.0726 19.1779 21.2366 19.5019C21.5538 20.0851 21.6048 20.7765 21.3766 21.3998C21.2086 21.8698 20.9606 22.1818 19.9307 23.2178L19.2587 23.8918C19.0819 24.0712 19.0399 24.3438 19.1547 24.5678C20.6464 27.113 22.7624 29.2358 25.3026 30.7358C25.5956 30.893 25.9566 30.842 26.1946 30.6098L26.8406 29.9738C27.2398 29.5642 27.6626 29.1782 28.1066 28.8178C28.803 28.387 29.6724 28.3454 30.4066 28.7078C30.7646 28.8758 30.8846 28.9858 32.6386 30.7338C34.4386 32.5338 34.4966 32.5918 34.6986 33.0058C35.0758 33.6916 35.072 34.5236 34.6886 35.2058C34.4886 35.5898 34.3766 35.7298 33.3606 36.7678C32.7466 37.3958 32.1606 37.9678 32.0766 38.0518C31.2376 38.7454 30.162 39.086 29.0766 39.0018C27.091 38.8202 25.1694 38.2058 23.4466 37.2018C19.6283 35.1788 16.378 32.231 13.9927 28.6278C13.471 27.8746 13.0071 27.083 12.6047 26.2598C11.5325 24.4218 10.9782 22.3276 11.0007 20.1999C11.0813 19.0829 11.6162 18.0478 12.4807 17.3359Z" stroke="black" stroke-width="2" stroke-linecap="round" stroke-linejoin="round"/>
<path d="M29.6833 9.5881C28.9035 9.30824 28.0447 9.71347 27.7647 10.4932C27.4849 11.2729 27.8901 12.1319 28.6699 12.4117L29.6833 9.5881ZM37.5735 21.1663C37.8665 21.9413 38.7321 22.3319 39.5071 22.0389C40.2819 21.7459 40.6727 20.8803 40.3797 20.1054L37.5735 21.1663ZM27.3071 14.0428C26.4989 13.8603 25.6959 14.3674 25.5135 15.1755C25.3309 15.9836 25.8381 16.7866 26.6461 16.9691L27.3071 14.0428ZM33.1391 23.3547C33.3351 24.1597 34.1465 24.6533 34.9513 24.4573C35.7563 24.2613 36.2499 23.4501 36.0541 22.6451L33.1391 23.3547ZM28.6699 12.4117C32.7763 13.8856 36.0305 17.0853 37.5735 21.1663L40.3797 20.1054C38.5261 15.2027 34.6167 11.3588 29.6833 9.5881L28.6699 12.4117ZM26.6461 16.9691C29.8475 17.6921 32.3629 20.1659 33.1391 23.3547L36.0541 22.6451C35.0083 18.3494 31.6195 15.0167 27.3071 14.0428L26.6461 16.9691Z" fill="black"/>
</svg>
