<svg width="100" height="100" viewBox="0 0 100 100" fill="none" xmlns="http://www.w3.org/2000/svg">
<circle cx="50" cy="50" r="50" fill="#F1EBE6"/>
<path d="M69.25 63.1127V53.4726C69.25 49.5991 66.1175 46.4617 62.25 46.4617H48.25C44.3825 46.4617 41.25 49.5991 41.25 53.4726V63.1127C40.1825 63.9189 39.5 65.1809 39.5 66.6182C39.5 69.0369 41.46 71 43.875 71H66.625C69.04 71 71 69.0369 71 66.6182C71 65.1809 70.3175 63.9189 69.25 63.1127ZM43 53.4726C43 50.5806 45.3625 48.2144 48.25 48.2144H62.25C65.1375 48.2144 67.5 50.5806 67.5 53.4726V62.3239C67.22 62.2714 66.9225 62.2363 66.625 62.2363H62.0925C61.41 62.2363 60.7275 62.5167 60.2375 63.0075L59.52 63.7261C59.3625 63.8839 59.135 63.989 58.9075 63.989H51.61C51.3825 63.989 51.155 63.9014 50.9975 63.7261L50.28 63.0075C49.79 62.5167 49.1075 62.2363 48.425 62.2363H43.8925C43.595 62.2363 43.2975 62.2714 43.0175 62.3239V53.4726H43ZM66.625 69.2473H43.875C42.4225 69.2473 41.25 68.0729 41.25 66.6182C41.25 65.1634 42.4225 63.989 43.875 63.989H48.4075C48.635 63.989 48.8625 64.0767 49.02 64.252L49.7375 64.9706C50.2275 65.4613 50.91 65.7418 51.5925 65.7418H58.89C59.5725 65.7418 60.255 65.4613 60.745 64.9706L61.4625 64.252C61.62 64.0942 61.8475 63.989 62.075 63.989H66.6075C68.06 63.989 69.2325 65.1634 69.2325 66.6182C69.2325 68.0729 68.06 69.2473 66.6075 69.2473H66.625ZM37.75 57.8545C37.75 58.3452 37.365 58.7308 36.875 58.7308H35.125C31.7475 58.7308 29 55.979 29 52.5962V42.3077C29 39.8714 30.1025 37.5928 32.0275 36.103L39.0275 30.6169C41.775 28.461 45.975 28.461 48.74 30.6169L53.5175 34.3502V31.5634C53.5175 31.0726 53.9025 30.687 54.3925 30.687C54.8825 30.687 55.2675 31.0726 55.2675 31.5634V35.7174L55.74 36.0854C57.5775 37.5227 58.68 39.6961 58.75 42.0448C58.75 42.5355 58.3825 42.9387 57.91 42.9562C57.4025 42.9912 57.0175 42.5881 57 42.1149C56.9475 40.292 56.09 38.6094 54.655 37.4876L47.655 31.984C45.52 30.3014 42.2475 30.3014 40.1125 31.984L33.095 37.4701C31.6075 38.6444 30.75 40.3972 30.75 42.3077V52.5962C30.75 55.015 32.71 56.9781 35.125 56.9781H36.875C37.365 56.9781 37.75 57.3637 37.75 57.8545Z" fill="#444444"/>
</svg>
