<svg width="30" height="30" viewBox="0 0 30 30" fill="none" xmlns="http://www.w3.org/2000/svg">
<circle cx="15" cy="15" r="15" fill="white"/>
<path fill-rule="evenodd" clip-rule="evenodd" d="M12.1141 8.042C12.8605 8.00764 13.0985 8 15 8C16.9015 8 17.1395 8.00827 17.8853 8.042C18.6311 8.07573 19.1402 8.19473 19.5856 8.36718C20.0521 8.54345 20.4753 8.819 20.8253 9.17536C21.1816 9.52473 21.4565 9.94727 21.6322 10.4144C21.8053 10.8598 21.9236 11.3689 21.958 12.1135C21.9924 12.8612 22 13.0992 22 15C22 16.9015 21.9917 17.1395 21.958 17.8859C21.9243 18.6305 21.8053 19.1395 21.6322 19.585C21.4565 20.0522 21.1812 20.4754 20.8253 20.8253C20.4753 21.1816 20.0521 21.4565 19.5856 21.6322C19.1402 21.8053 18.6311 21.9236 17.8865 21.958C17.1395 21.9924 16.9015 22 15 22C13.0985 22 12.8605 21.9917 12.1141 21.958C11.3695 21.9243 10.8605 21.8053 10.415 21.6322C9.94786 21.4565 9.52461 21.1812 9.17473 20.8253C8.81861 20.4757 8.54302 20.0527 8.36718 19.5856C8.19473 19.1402 8.07636 18.6311 8.042 17.8865C8.00764 17.1388 8 16.9008 8 15C8 13.0985 8.00827 12.8605 8.042 12.1147C8.07573 11.3689 8.19473 10.8598 8.36718 10.4144C8.54328 9.94732 8.81908 9.52429 9.17536 9.17473C9.52475 8.81868 9.94757 8.5431 10.4144 8.36718C10.8598 8.19473 11.3689 8.07636 12.1135 8.042H12.1141ZM17.8286 9.302C17.0905 9.26827 16.869 9.26127 15 9.26127C13.131 9.26127 12.9095 9.26827 12.1714 9.302C11.4885 9.33318 11.1182 9.44709 10.8713 9.54318C10.5448 9.67045 10.3113 9.82127 10.0663 10.0663C9.83403 10.2922 9.6553 10.5673 9.54318 10.8713C9.44709 11.1182 9.33318 11.4885 9.302 12.1714C9.26827 12.9095 9.26127 13.131 9.26127 15C9.26127 16.869 9.26827 17.0905 9.302 17.8286C9.33318 18.5115 9.44709 18.8818 9.54318 19.1287C9.65518 19.4323 9.834 19.7078 10.0663 19.9337C10.2922 20.166 10.5677 20.3448 10.8713 20.4568C11.1182 20.5529 11.4885 20.6668 12.1714 20.698C12.9095 20.7317 13.1304 20.7387 15 20.7387C16.8696 20.7387 17.0905 20.7317 17.8286 20.698C18.5115 20.6668 18.8818 20.5529 19.1287 20.4568C19.4552 20.3295 19.6887 20.1787 19.9337 19.9337C20.166 19.7078 20.3448 19.4323 20.4568 19.1287C20.5529 18.8818 20.6668 18.5115 20.698 17.8286C20.7317 17.0905 20.7387 16.869 20.7387 15C20.7387 13.131 20.7317 12.9095 20.698 12.1714C20.6668 11.4885 20.5529 11.1182 20.4568 10.8713C20.3295 10.5448 20.1787 10.3113 19.9337 10.0663C19.7078 9.83405 19.4327 9.65532 19.1287 9.54318C18.8818 9.44709 18.5115 9.33318 17.8286 9.302V9.302ZM14.1059 17.1579C14.6052 17.3658 15.1612 17.3938 15.679 17.2373C16.1967 17.0807 16.644 16.7493 16.9445 16.2996C17.245 15.8499 17.38 15.3098 17.3266 14.7716C17.2731 14.2334 17.0345 13.7304 16.6514 13.3486C16.4072 13.1046 16.1119 12.9177 15.7868 12.8015C15.4617 12.6852 15.1148 12.6425 14.7712 12.6764C14.4276 12.7103 14.0958 12.8199 13.7997 12.9974C13.5036 13.175 13.2505 13.4159 13.0586 13.703C12.8668 13.9901 12.741 14.3161 12.6903 14.6576C12.6396 14.9991 12.6653 15.3476 12.7654 15.6781C12.8656 16.0085 13.0378 16.3126 13.2695 16.5685C13.5013 16.8243 13.787 17.0257 14.1059 17.1579ZM12.4558 12.4558C12.7899 12.1217 13.1866 11.8567 13.6231 11.6759C14.0596 11.495 14.5275 11.402 15 11.402C15.4725 11.402 15.9404 11.495 16.3769 11.6759C16.8134 11.8567 17.2101 12.1217 17.5442 12.4558C17.8783 12.7899 18.1433 13.1866 18.3241 13.6231C18.505 14.0596 18.598 14.5275 18.598 15C18.598 15.4725 18.505 15.9404 18.3241 16.3769C18.1433 16.8134 17.8783 17.2101 17.5442 17.5442C16.8694 18.2189 15.9543 18.598 15 18.598C14.0457 18.598 13.1306 18.2189 12.4558 17.5442C11.7811 16.8694 11.402 15.9543 11.402 15C11.402 14.0457 11.7811 13.1306 12.4558 12.4558V12.4558ZM19.396 11.9378C19.4788 11.8597 19.5451 11.7658 19.5909 11.6616C19.6368 11.5574 19.6612 11.4451 19.6629 11.3313C19.6646 11.2175 19.6434 11.1045 19.6006 10.9991C19.5578 10.8936 19.4943 10.7978 19.4138 10.7173C19.3333 10.6368 19.2375 10.5733 19.132 10.5305C19.0266 10.4877 18.9136 10.4665 18.7998 10.4682C18.686 10.4698 18.5736 10.4943 18.4695 10.5402C18.3653 10.586 18.2714 10.6523 18.1933 10.7351C18.0414 10.8961 17.9582 11.11 17.9614 11.3313C17.9647 11.5527 18.054 11.764 18.2106 11.9205C18.3671 12.0771 18.5784 12.1664 18.7998 12.1696C19.0211 12.1729 19.235 12.0897 19.396 11.9378V11.9378Z" fill="#1D1615"/>
</svg>
