<svg width="100" height="100" viewBox="0 0 100 100" fill="none" xmlns="http://www.w3.org/2000/svg">
<circle cx="50" cy="50" r="50" fill="#F1EBE6"/>
<path d="M65.75 50C65.75 50.966 64.966 51.75 64 51.75C63.034 51.75 62.25 50.966 62.25 50C62.25 49.034 63.034 48.25 64 48.25C64.966 48.25 65.75 49.034 65.75 50ZM64 62.25C63.034 62.25 62.25 63.034 62.25 64C62.25 64.966 63.034 65.75 64 65.75C64.966 65.75 65.75 64.966 65.75 64C65.75 63.034 64.966 62.25 64 62.25ZM36 62.25C35.034 62.25 34.25 63.034 34.25 64C34.25 64.966 35.034 65.75 36 65.75C36.966 65.75 37.75 64.966 37.75 64C37.75 63.034 36.966 62.25 36 62.25ZM36 48.25C35.034 48.25 34.25 49.034 34.25 50C34.25 50.966 35.034 51.75 36 51.75C36.966 51.75 37.75 50.966 37.75 50C37.75 49.034 36.966 48.25 36 48.25ZM67.0625 44.0552C66.6408 43.8102 66.107 43.9555 65.8672 44.3737C65.624 44.792 65.7675 45.3275 66.1858 45.569C68.0758 46.6628 69.2483 48.6945 69.2483 50.875V63.125C69.2483 66.5025 66.5008 69.25 63.1233 69.25H36.875C33.4975 69.25 30.75 66.5025 30.75 63.125V50.875C30.75 47.4975 33.4975 44.75 36.875 44.75H56.125C56.608 44.75 57 44.358 57 43.875C57 43.392 56.608 43 56.125 43H36.875C32.5333 43 29 46.5333 29 50.875V63.125C29 67.4667 32.5333 71 36.875 71H63.125C67.4667 71 71 67.4667 71 63.125V50.875C71 48.0715 69.4915 45.4587 67.0625 44.0552ZM57 57C57 60.8605 53.8605 64 50 64C46.1395 64 43 60.8605 43 57C43 53.1395 46.1395 50 50 50C53.8605 50 57 53.1395 57 57ZM55.25 57C55.25 54.1055 52.8945 51.75 50 51.75C47.1055 51.75 44.75 54.1055 44.75 57C44.75 59.8945 47.1055 62.25 50 62.25C52.8945 62.25 55.25 59.8945 55.25 57ZM55.25 36C55.4705 36 55.6892 35.9178 55.8607 35.7515L60.5 31.233V43.875C60.5 44.358 60.892 44.75 61.375 44.75C61.858 44.75 62.25 44.358 62.25 43.875V31.2942L66.8945 35.755C67.2427 36.0892 67.7958 36.0805 68.1318 35.7305C68.466 35.3822 68.4555 34.8275 68.1073 34.4932L63.1985 29.7787C62.7925 29.371 62.25 29 61.375 29C60.5 29 59.9207 29.343 59.4937 29.77L54.641 34.4968C54.2945 34.8345 54.2875 35.3875 54.6235 35.734C54.795 35.9108 55.0225 36 55.25 36Z" fill="#444444"/>
</svg>
