<svg width="30" height="30" viewBox="0 0 30 30" fill="none" xmlns="http://www.w3.org/2000/svg">
<circle cx="15" cy="15" r="15" fill="#1D1615"/>
<path d="M11.148 9.55625C11.1477 9.96878 10.9817 10.3643 10.6864 10.6559C10.3911 10.9475 9.99063 11.1111 9.57319 11.1109C9.15575 11.1107 8.75548 10.9467 8.46045 10.6548C8.16542 10.3629 7.99979 9.96723 8 9.55469C8.00021 9.14216 8.16624 8.7466 8.46156 8.45504C8.75689 8.16348 9.15732 7.99979 9.57476 8C9.99221 8.00021 10.3925 8.16428 10.6875 8.45614C10.9825 8.74799 11.1482 9.14371 11.148 9.55625ZM11.1952 12.2628H8.04722V22H11.1952V12.2628ZM16.1689 12.2628H13.0367V22H16.1375V16.8903C16.1375 14.0438 19.8914 13.7793 19.8914 16.8903V22H23V15.8326C23 11.0339 17.4439 11.2128 16.1375 13.5694L16.1689 12.2628Z" fill="white"/>
</svg>
