<svg width="100" height="100" viewBox="0 0 100 100" fill="none" xmlns="http://www.w3.org/2000/svg">
<circle cx="50" cy="50" r="50" fill="white"/>
<path d="M76.2501 70.0925C76.2201 68.7275 76.2239 67.3625 76.2201 65.9937C76.2126 65.225 75.6276 64.5987 74.8832 64.4843C74.8157 64.0737 74.5907 63.7212 74.2607 63.4831C74.2326 62.3318 74.2195 61.1825 74.2045 60.0312C74.1857 58.4581 74.1707 56.8831 74.1614 55.3062C74.1389 52.2125 73.9889 49.1206 73.9814 46.0268C73.9776 43.3381 74.0226 40.6512 73.9551 37.9662C73.9251 36.7006 73.882 35.4275 73.8164 34.1618C73.7751 33.3912 73.6907 32.6318 73.582 31.865C73.4901 31.2256 73.267 30.5656 72.9182 30.0275C72.5301 29.4256 72.0895 28.8537 71.5907 28.3362C71.3264 28.0606 70.972 27.9312 70.6101 27.8993C70.4095 27.8037 70.1939 27.7381 69.9595 27.725C69.5001 27.6987 69.0464 27.7025 68.587 27.71C68.3376 27.71 68.0882 27.7137 67.8426 27.71C67.1207 27.7025 66.4007 27.6837 65.677 27.6593C64.1545 27.6068 62.6282 27.5712 61.102 27.53C58.8089 27.4643 56.5157 27.4681 54.2226 27.4718C53.4595 27.4718 52.6964 27.4718 51.9332 27.4681C48.892 27.4568 45.8526 27.4643 42.8151 27.395C41.2514 27.3575 39.6932 27.2993 38.1332 27.2487C36.6314 27.1981 35.1314 27.1681 33.6351 27.0987C32.0789 27.0293 30.5189 27.0143 28.9607 27.0068H28.9551C28.1432 27.0068 27.4682 27.6912 27.4682 28.4993C27.4682 28.5106 27.4757 28.5218 27.4757 28.5331C27.0295 29.0656 26.6039 29.6318 26.5007 30.3312C26.4351 30.7812 26.377 31.2368 26.3395 31.6925C26.2851 32.3337 26.3001 32.9862 26.3076 33.6293C26.3189 34.9531 26.3282 36.2787 26.3282 37.6025C26.3282 38.9637 26.3282 40.3287 26.3826 41.6862C26.437 43.07 26.5664 44.4406 26.602 45.8243C26.6207 46.4693 26.6245 47.12 26.6395 47.765C26.6451 48.0668 26.7614 48.3331 26.9207 48.5675C26.9864 49.1075 27.3332 49.5593 27.8264 49.7525C27.8301 49.865 27.8151 49.9737 27.8414 50.0862C27.9407 50.5231 28.0551 50.9562 28.1376 51.395C28.1582 51.7587 28.1282 52.115 28.2164 52.4825C28.3551 53.0918 28.8576 53.5287 29.4276 53.7256C29.7951 53.8512 30.2132 53.8325 30.5976 53.8325C31.5801 53.8325 32.557 53.7443 33.5414 53.7631C33.5039 54.9425 33.4757 56.1481 33.6707 57.3125C33.7814 57.9425 34.477 58.3831 35.0789 58.3831C35.3395 58.3831 35.5851 58.3137 35.812 58.1843C36.1064 58.0118 36.4326 57.6631 36.4832 57.3106C36.5564 56.8193 36.5751 56.3487 36.5676 55.8537C36.5582 55.1806 36.5957 54.5112 36.6295 53.8418C37.627 53.8775 38.6357 54.0368 39.6332 53.9675C40.0401 53.9375 40.4001 53.825 40.6945 53.5268C40.7114 53.51 40.7189 53.4837 40.7357 53.465C41.5814 53.4331 42.2526 52.7375 42.262 51.8956C42.2695 51.26 42.2507 50.6225 42.232 49.985C42.3164 49.985 42.4007 49.9887 42.4851 49.9887C42.502 49.9887 42.517 49.9793 42.5339 49.9793C42.7532 50.0131 42.9801 50.0075 43.1957 49.9493C44.0245 49.7187 44.527 48.8337 44.3001 48.005C44.1632 47.5081 44.0864 46.9962 44.0207 46.4825C45.0726 46.4675 46.1245 46.4487 47.1764 46.445C47.9057 46.4412 48.637 46.4375 49.3664 46.4562C49.9776 46.4731 50.5889 46.505 51.202 46.5275C51.2376 47.6806 51.2751 48.8318 51.3182 49.9831C51.3726 51.4662 51.3482 52.9475 51.3801 54.4306C51.4101 55.88 51.4607 57.3293 51.5114 58.7787C51.5582 60.155 51.6576 61.5275 51.6576 62.9075C51.6576 63.0087 51.6576 63.1081 51.6576 63.2093C49.5745 63.2243 47.4895 63.2431 45.4064 63.2468C43.8801 63.2506 42.3539 63.2768 40.8276 63.305C39.2601 63.3387 37.702 63.4306 36.1382 63.5075C32.6714 63.6837 29.2007 63.7025 25.7282 63.8562C25.1114 63.8843 24.5732 64.2462 24.3464 64.7881C24.112 65.0712 23.9957 65.3918 23.9657 65.7687C23.842 67.3456 23.7407 68.9412 23.7501 70.5218C23.752 71.0918 24.0914 71.5831 24.5657 71.8456C24.7495 72.4868 25.3251 73.0381 26.0226 72.9893C29.3507 72.7587 32.6714 72.4868 36.007 72.3987C37.4901 72.3593 38.9714 72.38 40.4545 72.38C42.0107 72.38 43.5614 72.3687 45.1176 72.3406C48.2957 72.2862 51.472 72.245 54.6501 72.2018C57.7514 72.1625 60.8432 72.1175 63.9445 72.1512C65.6507 72.1662 67.357 72.1662 69.0632 72.1737C70.7432 72.185 72.4139 72.0537 74.0939 72.0237C74.5195 72.0162 74.9001 71.8287 75.1739 71.5381C75.7889 71.3318 76.267 70.7656 76.2501 70.0925ZM37.3551 50.9656C36.5657 50.9656 35.7745 50.9262 34.9851 50.9075C34.1751 50.8887 33.3632 50.8812 32.5495 50.885C32.122 50.885 31.6907 50.8887 31.2614 50.8756C31.2126 50.5343 31.1395 50.2006 31.0739 49.8631C31.132 49.8631 31.192 49.8631 31.2501 49.8631C32.8101 49.8556 34.3645 49.8481 35.9282 49.8818C36.9876 49.9062 38.0451 49.9287 39.1045 49.9475C39.127 50.2906 39.1326 50.6337 39.1345 50.9768C38.5401 50.9825 37.9457 50.9656 37.3551 50.9656ZM54.3482 59.3656C54.2901 57.8975 54.2864 56.4293 54.2751 54.9631C54.2564 51.9575 54.2339 48.9575 54.2132 45.9556C54.2132 45.7493 54.2095 45.5412 54.2095 45.335C54.1982 44.5025 53.5195 43.8087 52.6832 43.8087C52.6007 43.8087 52.5239 43.8443 52.4432 43.8575C52.2351 43.7412 52.0064 43.6568 51.7551 43.6475C50.2439 43.5968 48.7345 43.5593 47.2195 43.5556C45.5901 43.5518 43.9607 43.5031 42.3314 43.4975H42.3257C41.5101 43.4975 40.8276 44.1856 40.8276 45.005C40.8276 45.065 40.8557 45.1175 40.8632 45.1756C40.717 45.5225 40.6982 45.86 40.7582 46.2462C40.7976 46.5125 40.8426 46.7787 40.8857 47.0468C40.402 47.0506 39.9164 47.0618 39.4326 47.0675C38.302 47.0825 37.1695 47.0975 36.0389 47.0787C33.8601 47.045 31.6814 47.0037 29.5026 46.9662C29.4539 45.7493 29.392 44.5306 29.3151 43.3118C29.227 41.9318 29.2382 40.5481 29.2382 39.1662C29.2382 37.775 29.2382 36.3893 29.257 34.9981C29.272 33.7681 29.2345 32.5362 29.3564 31.3062C29.3582 31.2781 29.362 31.25 29.3657 31.2218C29.3845 31.0981 29.4089 30.9743 29.437 30.8506C29.5945 30.5581 29.7876 30.2918 29.9939 30.0181C29.9995 30.0106 29.9976 29.9993 30.0014 29.99C31.3007 29.9806 32.6001 29.9693 33.8976 30.0143C35.4089 30.0706 36.9201 30.08 38.4295 30.125C41.4745 30.2131 44.5232 30.275 47.5701 30.3125C50.6339 30.35 53.6976 30.35 56.7614 30.3781C58.2726 30.3931 59.782 30.4006 61.2895 30.4512C62.8157 30.5056 64.342 30.605 65.8682 30.6612C66.5432 30.6875 67.2145 30.7137 67.8895 30.7306C68.4145 30.7475 68.9395 30.7587 69.4626 30.7775C69.6295 30.9537 69.7926 31.1337 69.9482 31.325C70.0945 31.5162 70.2445 31.7075 70.3607 31.9175C70.4826 32.2868 70.5689 32.66 70.6401 33.0462C70.7957 34.4225 70.8464 35.8025 70.9214 37.1843C71.002 38.7181 71.0489 40.2556 71.0601 41.7968C71.0826 44.8306 71.1014 47.87 71.2101 50.9037C71.2532 52.1037 71.3095 53.3037 71.3376 54.5037C71.3639 55.6381 71.3601 56.7706 71.3639 57.905C71.3676 59.6693 71.3789 61.4337 71.3751 63.2C68.9564 63.2206 66.5376 63.2075 64.1189 63.2018C62.5457 63.1981 60.9707 63.1643 59.3939 63.1643C57.8451 63.1643 56.2964 63.1756 54.7457 63.1943C54.6482 63.1943 54.5507 63.1943 54.4514 63.1962C54.4345 61.9175 54.4026 60.6425 54.3482 59.3656ZM65.1182 69.1925C62.0001 69.2112 58.8801 69.2543 55.762 69.3125C52.5876 69.3743 49.4189 69.4156 46.2445 69.4156C44.7032 69.4193 43.162 69.4118 41.6207 69.4043C40.1339 69.3968 38.6526 69.4418 37.1657 69.4737C35.3489 69.5112 33.5339 69.5393 31.717 69.6031C30.082 69.6631 28.4489 69.7625 26.8157 69.8656C26.8232 68.8456 26.8832 67.8237 26.9714 66.8056C29.8739 66.665 32.7764 66.5431 35.6789 66.4175C37.1826 66.3518 38.6845 66.2487 40.1882 66.215C41.7914 66.1775 43.3982 66.1531 45.0014 66.1343C46.6607 66.1118 48.3182 66.1193 49.9776 66.1231C51.397 66.1306 52.822 66.1343 54.2451 66.1193C57.3595 66.0893 60.4757 66.0762 63.5901 66.1343C65.1895 66.1681 66.7889 66.1775 68.3939 66.1737C69.2151 66.1737 70.042 66.17 70.8632 66.1812C71.6132 66.1887 72.3632 66.2206 73.1114 66.2393C73.1282 67.1787 73.1526 68.1181 73.1639 69.0575C71.9957 69.0931 70.8295 69.1475 69.6614 69.1662C68.1445 69.1925 66.6332 69.1812 65.1182 69.1925ZM56.5776 38.8381C56.7389 38.5775 56.872 38.3131 56.992 38.03C57.1495 37.6568 57.2789 37.2968 57.3595 36.8975C57.4251 36.5675 57.4814 36.23 57.4626 35.8925C57.4439 35.5475 57.3632 35.21 57.2526 34.8837C57.1307 34.5162 56.977 34.1431 56.7576 33.8187C56.5157 33.47 56.2439 33.125 55.8707 32.9075C55.6401 32.7706 55.3964 32.6618 55.147 32.5662C54.8582 32.2718 54.4514 32.0918 54.007 32.06C53.7407 32.0412 53.4782 32.0318 53.2157 32.0318C52.5614 32.0318 51.9182 32.0975 51.2732 32.285C50.5514 32.495 49.9195 32.9131 49.3945 33.4437C49.0964 33.7475 48.8545 34.1225 48.6201 34.4787C48.2864 34.985 48.007 35.525 47.9076 36.125C47.7501 37.0868 47.9507 38.12 48.5432 38.9056C48.9107 39.3968 49.3101 39.7718 49.8201 40.1206C50.1764 40.3625 50.6207 40.5237 51.0164 40.6681C52.0832 41.0543 53.1951 40.8631 54.2564 40.5725C55.2351 40.3043 56.0395 39.7025 56.5776 38.8381ZM54.4645 36.0743C54.4101 36.3462 54.3389 36.6068 54.2451 36.8656C54.1364 37.0775 54.0182 37.2781 53.887 37.4768C53.8626 37.5031 53.8382 37.5275 53.8139 37.5537C53.7389 37.6025 53.6639 37.6456 53.5851 37.6887C53.2739 37.7862 52.9589 37.8631 52.6364 37.9212C52.4995 37.9306 52.3682 37.9306 52.2351 37.925C52.0964 37.8912 51.9614 37.8518 51.8264 37.8068C51.6651 37.7262 51.5095 37.6418 51.3576 37.5443C51.2582 37.4487 51.1645 37.3493 51.0745 37.2481C51.0295 37.1787 50.9882 37.1093 50.9489 37.0381C50.9376 36.9987 50.9264 36.9593 50.917 36.9218C50.9132 36.845 50.9114 36.7662 50.9114 36.6875C50.9301 36.6125 50.9507 36.5393 50.9714 36.4643C51.1026 36.2093 51.2639 35.9712 51.4345 35.7387C51.5357 35.6262 51.637 35.5193 51.7476 35.4143C51.8151 35.3693 51.8845 35.3262 51.9557 35.285C52.1132 35.2343 52.2707 35.195 52.4339 35.1612C52.8726 35.1293 53.3039 35.1462 53.7407 35.1781C53.9057 35.2512 54.0651 35.3281 54.2207 35.4162C54.2639 35.4856 54.3051 35.5568 54.3445 35.63C54.3914 35.7687 54.4326 35.9075 54.4645 36.0481C54.4645 36.0537 54.4645 36.065 54.4645 36.0743ZM60.442 40.0006C60.8489 40.3193 61.267 40.5406 61.7657 40.6868C61.9682 40.745 62.1801 40.775 62.3901 40.8106C62.9114 40.8987 63.4439 40.9531 63.9707 40.9137C64.642 40.8631 65.2514 40.6643 65.8645 40.3962C66.1645 40.265 66.4514 40.0362 66.697 39.8281C67.0082 39.5637 67.2407 39.2637 67.4864 38.9393C67.8089 38.5175 68.0264 38.0337 68.1989 37.5331C68.2832 37.2837 68.3489 37.0268 68.4089 36.7662C68.6039 35.8868 68.482 34.9906 67.9401 34.2612C67.7132 33.9537 67.4639 33.6743 67.192 33.4025C66.7195 32.9337 66.1064 32.6731 65.4857 32.4593C65.3432 32.4106 65.1989 32.3937 65.0545 32.3993C64.8201 32.1987 64.4751 32.0187 64.1601 32.0187C64.1282 32.0187 64.0982 32.0206 64.0664 32.0243C62.962 32.1593 61.7882 32.2981 60.9332 33.095C60.382 33.6012 59.932 34.1806 59.587 34.8481C59.407 35.2006 59.2532 35.5737 59.1239 35.9525C58.8707 36.6893 58.9082 37.4637 59.1276 38.2043C59.3414 38.9225 59.8607 39.5468 60.442 40.0006ZM62.1632 36.5131C62.3245 36.1643 62.5026 35.8268 62.722 35.5118C62.8195 35.4012 62.9189 35.2962 63.0276 35.1968C63.0389 35.1912 63.0482 35.1837 63.0595 35.1781C63.3014 35.1068 63.5451 35.0562 63.7964 35.0131C63.8864 35.0018 63.9782 34.9906 64.0682 34.9812C64.1826 34.9681 64.2914 34.9531 64.3945 34.9306C64.5051 34.9962 64.6251 35.0506 64.7545 35.0993C64.7864 35.1125 64.8182 35.1256 64.8501 35.1387C64.987 35.2043 65.1201 35.2737 65.2495 35.3543C65.392 35.4912 65.5251 35.6356 65.6507 35.7875C65.6714 35.8175 65.6901 35.8475 65.7089 35.8775C65.7089 35.915 65.7089 35.9506 65.7089 35.9881C65.6507 36.2581 65.5626 36.5243 65.4707 36.785C65.3695 36.9856 65.2551 37.175 65.1257 37.3568C65.0226 37.4731 64.9139 37.5837 64.7957 37.6887C64.7076 37.7468 64.6176 37.8031 64.522 37.8537C64.3176 37.9231 64.1095 37.9756 63.8976 38.0168C63.6914 38.03 63.4889 38.0243 63.2826 38.0075C63.0089 37.9568 62.737 37.8968 62.4707 37.8068C62.452 37.7975 62.4314 37.7862 62.4126 37.775C62.2889 37.6587 62.1726 37.5368 62.062 37.4112C62.0601 37.4075 62.0564 37.4037 62.0545 37.4C62.0357 37.3306 62.017 37.2631 62.002 37.1937C62.0001 37.145 62.0001 37.0962 62.0001 37.0493C62.0451 36.8675 62.0995 36.6893 62.1632 36.5131ZM64.9289 52.9925C64.9289 53.8625 64.2032 54.5881 63.3332 54.5881C62.4632 54.5881 61.7376 53.8625 61.7376 52.9925C61.7376 52.1225 62.4651 51.3968 63.3332 51.3968C64.2014 51.395 64.9289 52.1225 64.9289 52.9925ZM64.8464 57.5356C64.8464 58.4018 64.1245 59.1237 63.2582 59.1237C62.392 59.1237 61.6701 58.4018 61.6701 57.5356C61.6701 56.6693 62.392 55.9475 63.2582 55.9475C64.1226 55.9475 64.8464 56.6693 64.8464 57.5356Z" fill="#444444"/>
</svg>
