<svg width="30" height="30" viewBox="0 0 30 30" fill="none" xmlns="http://www.w3.org/2000/svg">
<circle cx="15" cy="15" r="15" fill="white"/>
<path d="M20.2386 9H9.76145C9.29428 9 8.84625 9.18558 8.51592 9.51592C8.18558 9.84625 8 10.2943 8 10.7614V18.4202C8 18.8874 8.18558 19.3354 8.51592 19.6658C8.84625 19.9961 9.29428 20.1817 9.76145 20.1817H20.2386C20.7057 20.1817 21.1537 19.9961 21.4841 19.6658C21.8144 19.3354 22 18.8874 22 18.4202V10.7614C22 10.2943 21.8144 9.84625 21.4841 9.51592C21.1537 9.18558 20.7057 9 20.2386 9ZM9.76145 9.70458H20.2386C20.5052 9.70398 20.7621 9.80486 20.957 9.98675C21.152 10.1686 21.2705 10.4179 21.2884 10.6839C19.5481 11.614 17.8007 12.537 16.0533 13.467C15.8173 13.6159 15.5672 13.7409 15.3065 13.8405C15.1021 13.8809 14.8914 13.8774 14.6885 13.83C14.4856 13.7826 14.2952 13.6925 14.1298 13.5657C13.1293 13.0372 12.1288 12.5018 11.1354 11.9733C10.3322 11.5506 9.51485 11.1208 8.71163 10.691C8.7278 10.4237 8.84551 10.1727 9.04066 9.98932C9.23582 9.80595 9.49367 9.70409 9.76145 9.70458ZM21.2954 18.4202C21.2954 18.7005 21.1841 18.9694 20.9859 19.1676C20.7877 19.3658 20.5189 19.4771 20.2386 19.4771H9.76145C9.48115 19.4771 9.21233 19.3658 9.01413 19.1676C8.81593 18.9694 8.70458 18.7005 8.70458 18.4202V11.4907C10.3674 12.3644 12.0232 13.2521 13.686 14.1329C13.983 14.3152 14.3028 14.4573 14.6371 14.5556C15.1264 14.6353 15.6279 14.5325 16.0463 14.2667C17.0679 13.7313 18.0825 13.1887 19.1042 12.6532C19.8369 12.2587 20.5627 11.8782 21.2954 11.4907V18.4202Z" fill="#1D1615"/>
</svg>
