<svg width="100" height="100" viewBox="0 0 100 100" fill="none" xmlns="http://www.w3.org/2000/svg">
<circle cx="50" cy="50" r="50" fill="#F1EBE6"/>
<path d="M60.4622 69.878C60.5987 70.3417 60.3345 70.8265 59.869 70.963C59.7867 70.9875 59.7045 70.9997 59.6222 70.9997C59.2425 70.9997 58.8942 70.753 58.784 70.3715C57.6797 66.6195 54.0677 63.9998 49.9973 63.9998C45.9268 63.9998 42.3148 66.6195 41.2106 70.3715C41.0758 70.837 40.5858 71.0995 40.1256 70.9647C39.6601 70.8282 39.3959 70.3435 39.5324 69.8797C40.8518 65.3875 45.1551 62.2515 49.9955 62.2515C54.836 62.2515 59.141 65.3875 60.4587 69.8797L60.4622 69.878ZM70.9621 54.1281C69.6426 49.6359 65.3394 46.4999 60.499 46.4999C60.016 46.4999 59.624 46.8919 59.624 47.3749C59.624 47.8579 60.016 48.2499 60.499 48.2499C64.5677 48.2499 68.1814 50.8696 69.2856 54.6216C69.3959 55.0048 69.7459 55.2498 70.1239 55.2498C70.2061 55.2498 70.2884 55.2376 70.3706 55.2131C70.8361 55.0766 71.0986 54.5918 70.9621 54.1281ZM40.3741 47.3749C40.3741 46.8919 39.9821 46.4999 39.4991 46.4999C34.6569 46.4999 30.3537 49.6359 29.0359 54.1281C28.8994 54.5918 29.1637 55.0766 29.6292 55.2131C29.7114 55.2376 29.7937 55.2498 29.8759 55.2498C30.2557 55.2498 30.6039 55.0031 30.7142 54.6216C31.8184 50.8696 35.4304 48.2499 39.5009 48.2499C39.9838 48.2499 40.3741 47.8579 40.3741 47.3749ZM49.999 44.7499C53.8595 44.7499 56.999 47.8894 56.999 51.7498C56.999 55.6103 53.8595 58.7498 49.999 58.7498C46.1386 58.7498 42.9991 55.6103 42.9991 51.7498C42.9991 47.8894 46.1386 44.7499 49.999 44.7499ZM44.7491 51.7498C44.7491 54.6443 47.1045 56.9998 49.999 56.9998C52.8935 56.9998 55.249 54.6443 55.249 51.7498C55.249 48.8554 52.8935 46.4999 49.999 46.4999C47.1045 46.4999 44.7491 48.8554 44.7491 51.7498ZM53.499 36C53.499 32.1395 56.6385 29 60.499 29C64.3594 29 67.4989 32.1395 67.4989 36C67.4989 39.8604 64.3594 42.9999 60.499 42.9999C56.6385 42.9999 53.499 39.8604 53.499 36ZM55.249 36C55.249 38.8944 57.6045 41.2499 60.499 41.2499C63.3934 41.2499 65.7489 38.8944 65.7489 36C65.7489 33.1055 63.3934 30.75 60.499 30.75C57.6045 30.75 55.249 33.1055 55.249 36ZM32.4991 36C32.4991 32.1395 35.6386 29 39.4991 29C43.3596 29 46.4991 32.1395 46.4991 36C46.4991 39.8604 43.3596 42.9999 39.4991 42.9999C35.6386 42.9999 32.4991 39.8604 32.4991 36ZM34.2491 36C34.2491 38.8944 36.6046 41.2499 39.4991 41.2499C42.3936 41.2499 44.7491 38.8944 44.7491 36C44.7491 33.1055 42.3936 30.75 39.4991 30.75C36.6046 30.75 34.2491 33.1055 34.2491 36Z" fill="#444444"/>
</svg>
