<svg width="30" height="30" viewBox="0 0 30 30" fill="none" xmlns="http://www.w3.org/2000/svg">
<circle cx="15" cy="15" r="15" fill="white"/>
<path d="M10.1002 13.1999C10.1002 10.8802 12.294 9 15.0001 9C17.7063 9 19.9 10.8802 19.9 13.1999M19.9 18.7998V19.3598C19.9 20.5967 18.6471 21.5998 17.1001 21.5998H15.7001M18.5001 14.4634C18.5001 14.2212 18.5001 14.1001 18.5365 13.9923C18.6422 13.6787 18.9215 13.5576 19.2015 13.4302C19.515 13.2867 19.6718 13.2153 19.8279 13.2027C20.0043 13.1887 20.1814 13.2265 20.3326 13.3112C20.5328 13.4232 20.6728 13.6374 20.8156 13.811C21.4757 14.6132 21.8061 15.0143 21.9265 15.456C22.0245 15.813 22.0245 16.1868 21.9265 16.5431C21.7508 17.1884 21.1943 17.7288 20.782 18.23C20.5713 18.4855 20.4656 18.6136 20.3326 18.6885C20.1788 18.7738 20.0032 18.8116 19.8279 18.797C19.6718 18.7844 19.515 18.713 19.2008 18.5695C18.9208 18.4421 18.6422 18.321 18.5365 18.0074C18.5001 17.8996 18.5001 17.7785 18.5001 17.5363V14.4634ZM11.5002 14.4634C11.5002 14.1582 11.4918 13.8845 11.2454 13.6703C11.1558 13.5926 11.0368 13.5387 10.7995 13.4302C10.4852 13.2874 10.3284 13.2153 10.1723 13.2027C9.70544 13.1649 9.45415 13.4841 9.18535 13.8117C8.52457 14.6132 8.19417 15.0143 8.07308 15.4567C7.97564 15.8125 7.97564 16.1879 8.07308 16.5438C8.24947 17.1884 8.80666 17.7295 9.21825 18.23C9.47795 18.545 9.72644 18.8327 10.1723 18.797C10.3284 18.7844 10.4852 18.713 10.7995 18.5695C11.0375 18.4617 11.1558 18.4071 11.2454 18.3294C11.4918 18.1152 11.5002 17.8415 11.5002 17.537V14.4634Z" stroke="#1D1615" stroke-linecap="round" stroke-linejoin="round"/>
</svg>
