<svg width="100" height="100" viewBox="0 0 100 100" fill="none" xmlns="http://www.w3.org/2000/svg">
<circle cx="50" cy="50" r="50" fill="#F1EBE6"/>
<path d="M58.7534 50.876V64.1977C58.7534 65.305 58.3703 66.6521 57.751 67.7105C57.3504 68.3945 57.1089 69.2289 57.0302 70.1911C56.9917 70.6739 56.5614 71.0326 56.0873 70.9923C55.6062 70.9538 55.2476 70.5305 55.2861 70.0494C55.3858 68.8248 55.7059 67.7402 56.2395 66.8288C56.7661 65.9261 57.0022 64.8572 57.0022 64.1994V50.8778C57.0022 50.3949 56.6104 50.0031 56.1275 50.0031C55.6447 50.0031 55.2528 50.3949 55.2528 50.8778V56.126C55.2528 56.6088 54.861 57.0006 54.3781 57.0006C53.8953 57.0006 53.5034 56.6088 53.5034 56.126V49.1284C53.5034 48.6455 53.1116 48.2537 52.6287 48.2537C52.1459 48.2537 51.754 48.6455 51.754 49.1284V56.126C51.754 56.6088 51.3622 57.0006 50.8793 57.0006C50.3965 57.0006 50.0046 56.6088 50.0046 56.126V47.379C50.0046 46.8961 49.6128 46.5043 49.1299 46.5043C48.6471 46.5043 48.2552 46.8961 48.2552 47.379V56.126C48.2552 56.6088 47.8634 57.0006 47.3806 57.0006C46.8977 57.0006 46.5059 56.6088 46.5059 56.126V49.1284C46.5059 48.6455 46.114 48.2537 45.6312 48.2537C45.1483 48.2537 44.7565 48.6455 44.7565 49.1284V62.2296C44.7809 62.9853 43.7803 63.4034 43.2625 62.8489L41.2472 60.8336C40.8815 60.4627 40.229 60.3437 39.8109 60.8336C39.4383 61.1852 39.3981 61.8692 39.7654 62.2261L44.6532 66.9845C45.4772 67.7857 46.0563 68.8003 46.3292 69.9164C46.4429 70.387 46.156 70.8594 45.6871 70.9748C45.2305 71.0885 44.7425 70.8069 44.6288 70.3328C44.4346 69.5351 44.02 68.8108 43.4322 68.2388L38.5356 63.4717C37.4825 62.4535 37.5175 60.6044 38.5723 59.5968C39.4768 58.3249 41.9539 58.7763 42.4822 59.5985L43.0036 60.1198V49.1301C43.0036 47.6834 44.1809 46.506 45.6277 46.506C45.9723 46.506 46.3012 46.576 46.6038 46.6985C46.9065 45.5823 47.9176 44.7566 49.1264 44.7566C50.3353 44.7566 51.3464 45.5841 51.6491 46.6985C51.9517 46.576 52.2789 46.506 52.6252 46.506C53.8341 46.506 54.8452 47.3335 55.1479 48.4478C55.4505 48.3254 55.7777 48.2554 56.124 48.2554C57.5708 48.2554 58.7481 49.4328 58.7481 50.8795L58.7534 50.876ZM38.7193 52.251C39.461 52.2773 39.8914 51.2924 39.3473 50.7675L33.6338 44.8616C33.1772 44.3892 32.6034 43.4586 32.355 42.4422C32.0821 41.3768 31.4715 40.1085 30.4621 39.1498C29.6277 38.3818 28.4381 39.7131 29.2988 40.4549C30.0178 41.1336 30.4446 42.0678 30.6546 42.8585C30.9467 44.0499 31.6062 45.2849 32.376 46.0792L38.0895 51.9834C38.2609 52.1618 38.4901 52.2493 38.7175 52.2493L38.7193 52.251ZM36.9209 33.368C37.8953 33.9733 39.0132 34.2917 40.159 34.2917H40.1695L47.3158 34.2777C47.8249 34.283 48.264 34.7641 48.257 35.3064C48.3042 35.9519 47.7374 36.3105 47.2284 36.3088L44.0514 36.2755C43.308 36.3123 42.8584 37.2097 43.4164 37.7625L47.7269 42.1745C48.5089 42.9967 49.7825 41.7512 48.9778 40.9517L46.1402 38.0477L47.2056 38.0582C48.1678 38.2769 50.2426 36.8668 50.0046 35.3274C50.0221 33.8281 48.7993 32.5476 47.3228 32.5283L40.1625 32.5423C39.3438 32.5966 38.6021 32.3324 37.9251 31.9318L35.2607 29.264C34.47 28.4487 33.2104 29.7101 34.0239 30.5008C34.0239 30.5008 36.8649 33.3313 36.9209 33.368ZM64.4039 30.499C65.2157 29.7048 63.9473 28.4505 63.1619 29.2675L61.2043 31.2478C60.4608 31.8601 59.6928 32.2659 58.9213 32.4531C57.7317 32.7453 56.4984 33.403 55.7059 34.1693L51.859 37.8255C51.0245 38.5935 52.2544 39.888 53.0626 39.0938L56.9165 35.4323C57.3906 34.974 58.323 34.4002 59.3377 34.1535C60.3646 33.9016 61.367 33.3785 62.3799 32.5388L64.4022 30.4973L64.4039 30.499ZM70.7437 37.5946C70.4026 37.2535 69.8481 37.2535 69.5069 37.5946C69.4107 37.7013 68.459 38.6145 68.4136 38.7212C67.8048 39.6974 67.4864 40.8205 67.4881 41.9698L67.5004 49.1179C67.5109 49.6339 66.9633 50.0695 66.4735 50.059C65.6775 50.0346 65.52 49.564 65.4711 49.0304L65.5043 45.8535C65.5375 45.1013 64.5509 44.6761 64.0243 45.2132L61.5804 47.5557C60.7494 48.3289 61.9828 49.6147 62.791 48.8187L63.7339 47.916L63.7217 49.0112C63.7007 50.5191 64.8605 51.8364 66.4542 51.8102C67.9115 51.8609 69.2603 50.5926 69.2515 49.1284L69.2393 41.9681C69.2393 41.1791 69.4474 40.4076 69.8498 39.7306L70.7455 38.8349C71.0866 38.4938 71.0866 37.9392 70.7455 37.5981L70.7437 37.5946Z" fill="#444444"/>
</svg>
