<svg width="100" height="100" viewBox="0 0 100 100" fill="none" xmlns="http://www.w3.org/2000/svg">
<circle cx="50" cy="50" r="50" fill="white"/>
<path d="M77.6608 28.8856C77.445 28.6361 77.2161 28.4004 76.9777 28.1763V24.2355C76.9777 23.5755 76.4427 23.0403 75.7825 23.0403C75.1224 23.0403 74.5873 23.5755 74.5873 24.2355V26.5292C73.709 26.1036 72.7645 25.8101 71.7839 25.6675L60.1835 23.9809C57.5045 23.5913 54.7947 24.3837 52.7478 26.1547C50.7009 27.9255 49.5268 30.4935 49.5268 33.2002V39.935H24.2534C23.5933 39.935 23.0582 40.4702 23.0582 41.1302V70.0639H21.1952C20.5351 70.0642 20 70.5994 20 71.2594V75.7647C20 76.4247 20.5351 76.9599 21.1952 76.9599H44.3473C45.0075 76.9599 45.5425 76.4247 45.5425 75.7647V71.2594C45.5425 70.5994 45.0075 70.0642 44.3473 70.0642H42.4843V47.957H58.8879C59.548 47.957 60.083 47.4218 60.083 46.7618V42.3255H74.5873V46.4802C74.5873 47.1402 75.1224 47.6754 75.7825 47.6754C76.4427 47.6754 76.9777 47.1402 76.9777 46.4802V42.3255H78.8047C79.4648 42.3255 79.9999 41.7903 79.9999 41.1303V35.1646C80 32.8592 79.1694 30.6292 77.6608 28.8856ZM51.9171 33.2003C51.9171 31.1881 52.7899 29.2789 54.3117 27.9625C55.8335 26.6461 57.848 26.0569 59.8394 26.3466L61.9161 26.6484V34.3034H51.917V33.2003H51.9171ZM25.4486 47.957H40.0938V70.064H25.4486V47.957ZM43.1521 72.4545V74.5694H22.3904V72.4545H43.1521ZM57.6925 45.5667H25.4486V42.3255H57.6925V45.5667ZM77.6096 39.9351H51.9173V36.6939H63.1116C63.7718 36.6939 64.3068 36.1587 64.3068 35.4987V26.9958L71.44 28.0329C74.9572 28.5443 77.6096 31.6104 77.6096 35.1646V39.9351Z" fill="black"/>
<path d="M28.2311 55.2588C27.571 55.2588 27.0359 55.794 27.0359 56.454V67.6891C27.0359 68.3491 27.571 68.8843 28.2311 68.8843C28.8912 68.8843 29.4263 68.3491 29.4263 67.6891V56.454C29.4263 55.794 28.8912 55.2588 28.2311 55.2588Z" fill="black"/>
<path d="M28.2311 50.478C27.571 50.478 27.0359 51.0132 27.0359 51.6732V52.6294C27.0359 53.2894 27.571 53.8245 28.2311 53.8245C28.8912 53.8245 29.4263 53.2894 29.4263 52.6294V51.6732C29.4263 51.0132 28.8912 50.478 28.2311 50.478Z" fill="black"/>
</svg>
