<svg width="30" height="30" viewBox="0 0 30 30" fill="none" xmlns="http://www.w3.org/2000/svg">
<circle cx="15.0001" cy="15" r="15" fill="white"/>
<path d="M21.1348 11.8281C21.1348 11.9746 21.1348 12.0918 21.1348 12.2383C21.1348 16.3105 18.0587 20.9688 12.4044 20.9688C10.6465 20.9688 9.03522 20.4707 7.68756 19.5918C7.92194 19.6211 8.15631 19.6504 8.41998 19.6504C9.85553 19.6504 11.1739 19.1523 12.2286 18.332C10.8809 18.3027 9.73834 17.4238 9.35748 16.1934C9.56256 16.2227 9.73834 16.252 9.94342 16.252C10.2071 16.252 10.5001 16.1934 10.7344 16.1348C9.32819 15.8418 8.2735 14.6113 8.2735 13.1172V13.0879C8.68365 13.3223 9.1817 13.4395 9.67975 13.4688C8.83014 12.9121 8.3028 11.9746 8.3028 10.9199C8.3028 10.334 8.44928 9.80664 8.71295 9.36719C10.2364 11.2129 12.5215 12.4434 15.0704 12.5898C15.0118 12.3555 14.9825 12.1211 14.9825 11.8867C14.9825 10.1875 16.3594 8.81055 18.0587 8.81055C18.9376 8.81055 19.7286 9.16211 20.3145 9.77734C20.9883 9.63086 21.6622 9.36719 22.2481 9.01562C22.0137 9.74805 21.545 10.334 20.9005 10.7148C21.5157 10.6562 22.1309 10.4805 22.6583 10.2461C22.2481 10.8613 21.7208 11.3887 21.1348 11.8281Z" fill="#050B20"/>
</svg>
