<svg width="30" height="30" viewBox="0 0 30 30" fill="none" xmlns="http://www.w3.org/2000/svg">
<circle cx="15" cy="15" r="15" fill="white"/>
<path d="M19.9598 10.037C19.3147 9.38891 18.5464 8.87501 17.6998 8.52529C16.8531 8.17557 15.9449 7.99702 15.0281 8.00004C11.1869 8.00004 8.05628 11.115 8.05628 14.937C8.05628 16.162 8.3799 17.352 8.98492 18.402L8 22L11.6935 21.034C12.7136 21.587 13.8603 21.881 15.0281 21.881C18.8693 21.881 22 18.766 22 14.944C22 13.089 21.2754 11.346 19.9598 10.037ZM15.0281 20.705C13.9869 20.705 12.9668 20.425 12.0734 19.9L11.8623 19.774L9.66734 20.348L10.2513 18.22L10.1106 18.003C9.53194 17.084 9.22477 16.0215 9.22412 14.937C9.22412 11.759 11.8271 9.16903 15.0211 9.16903C16.5688 9.16903 18.0251 9.77103 19.1156 10.863C19.6556 11.3977 20.0836 12.0338 20.3746 12.7344C20.6657 13.4349 20.814 14.186 20.8111 14.944C20.8251 18.122 18.2221 20.705 15.0281 20.705ZM18.208 16.393C18.0322 16.309 17.1739 15.889 17.0191 15.826C16.8573 15.77 16.7447 15.742 16.6251 15.91C16.5055 16.085 16.1749 16.477 16.0764 16.589C15.9779 16.708 15.8724 16.722 15.6965 16.631C15.5206 16.547 14.9578 16.358 14.2965 15.77C13.7759 15.308 13.4312 14.741 13.3256 14.566C13.2271 14.391 13.3116 14.3 13.403 14.209C13.4804 14.132 13.5789 14.006 13.6633 13.908C13.7477 13.81 13.7829 13.733 13.8392 13.621C13.8955 13.502 13.8673 13.404 13.8251 13.32C13.7829 13.236 13.4312 12.382 13.2905 12.032C13.1497 11.696 13.002 11.738 12.8965 11.731H12.5588C12.4392 11.731 12.2563 11.773 12.0945 11.948C11.9397 12.123 11.4894 12.543 11.4894 13.397C11.4894 14.251 12.1156 15.077 12.2 15.189C12.2844 15.308 13.4312 17.058 15.1759 17.807C15.591 17.989 15.9146 18.094 16.1678 18.171C16.5829 18.304 16.9628 18.283 17.2653 18.241C17.603 18.192 18.2995 17.821 18.4402 17.415C18.5879 17.009 18.5879 16.666 18.5387 16.589C18.4894 16.512 18.3839 16.477 18.208 16.393Z" fill="#1D1615"/>
</svg>
