<svg width="50" height="50" viewBox="0 0 50 50" fill="none" xmlns="http://www.w3.org/2000/svg">
<circle cx="25" cy="25" r="25" fill="#E8E8E8"/>
<g clip-path="url(#clip0_228_1383)">
<path d="M23.239 27.782C23.726 28.259 24.367 28.496 25.006 28.496C25.638 28.496 26.268 28.263 26.742 27.799L29.949 24.95C31.271 23.628 32 21.87 32 20C32 18.13 31.271 16.373 29.949 15.05C28.628 13.728 26.87 13 25 13C23.13 13 21.372 13.728 20.05 15.05C17.321 17.779 17.321 22.22 20.071 24.97L23.239 27.782ZM20.757 15.757C21.891 14.624 23.398 14 25 14C26.602 14 28.109 14.624 29.242 15.757C30.376 16.89 31 18.397 31 20C31 21.603 30.376 23.109 29.264 24.222L26.061 27.067C25.477 27.64 24.525 27.637 23.921 27.05L20.757 24.242C18.418 21.903 18.418 18.096 20.757 15.757ZM25 22.98C26.648 22.98 27.99 21.639 27.99 19.99C27.99 18.341 26.648 17 25 17C23.352 17 22.01 18.341 22.01 19.99C22.01 21.639 23.352 22.98 25 22.98ZM25 18C26.098 18 26.99 18.893 26.99 19.99C26.99 21.087 26.097 21.98 25 21.98C23.903 21.98 23.01 21.087 23.01 19.99C23.01 18.893 23.903 18 25 18ZM37 30.016C37 30.192 36.908 30.355 36.757 30.445L26.447 36.631C26.001 36.899 25.501 37.033 25 37.033C24.499 37.033 23.999 36.898 23.553 36.631L13.243 30.444C13.092 30.354 13 30.191 13 30.015C13 29.839 13.092 29.676 13.243 29.586L18.243 26.586C18.477 26.443 18.787 26.521 18.929 26.758C19.072 26.994 18.994 27.302 18.757 27.444L14.472 30.015L24.067 35.772C24.643 36.118 25.358 36.118 25.934 35.772L35.529 30.015L31.218 27.428C30.981 27.286 30.904 26.979 31.046 26.742C31.189 26.505 31.498 26.428 31.732 26.57L36.757 29.586C36.908 29.677 37 29.839 37 30.015V30.016Z" fill="#3F3F3F"/>
</g>
<defs>
<clipPath id="clip0_228_1383">
<rect width="24" height="24" fill="white" transform="translate(13 13)"/>
</clipPath>
</defs>
</svg>
