<svg width="50" height="50" viewBox="0 0 50 50" fill="none" xmlns="http://www.w3.org/2000/svg">
<circle cx="25" cy="25" r="25" fill="#E8E8E8"/>
<path d="M26.2272 16H17.2272C16.5506 16 15.9999 16.5506 15.9999 17.2273V34H24.9999V34.8182H15.1818V17.2273C15.1818 16.099 16.0989 15.1818 17.2272 15.1818H26.2272C27.3555 15.1818 28.2727 16.099 28.2727 17.2273V24.2006C27.9609 24.4363 27.6885 24.7177 27.4545 25.0295V17.2273C27.4545 16.5506 26.9039 16 26.2272 16ZM20.909 25.8182H18.4545V26.6364H20.909V25.8182ZM22.5454 26.6364H24.9999V25.8182H22.5454V26.6364ZM18.4545 29.9091H20.909V29.0909H18.4545V29.9091ZM22.5454 29.9091H24.9999V29.0909H22.5454V29.9091ZM20.909 19.2727H18.4545V20.0909H20.909V19.2727ZM22.5454 20.0909H24.9999V19.2727H22.5454V20.0909ZM20.909 22.5455H18.4545V23.3636H20.909V22.5455ZM22.5454 23.3636H24.9999V22.5455H22.5454V23.3636ZM32.7727 30.7273H28.6818C27.5535 30.7273 26.6363 31.6445 26.6363 32.7727V34.8182H27.4545V32.7727C27.4545 32.0961 28.0051 31.5455 28.6818 31.5455H32.7727C33.4493 31.5455 33.9999 32.0961 33.9999 32.7727V34.8182H34.8181V32.7727C34.8181 31.6445 33.9009 30.7273 32.7727 30.7273ZM28.2727 27.4546C28.2727 26.1013 29.3739 25 30.7272 25C32.0805 25 33.1818 26.1013 33.1818 27.4546C33.1818 28.8078 32.0805 29.9091 30.7272 29.9091C29.3739 29.9091 28.2727 28.8078 28.2727 27.4546ZM29.0909 27.4546C29.0909 28.357 29.8248 29.0909 30.7272 29.0909C31.6297 29.0909 32.3636 28.357 32.3636 27.4546C32.3636 26.5521 31.6297 25.8182 30.7272 25.8182C29.8248 25.8182 29.0909 26.5521 29.0909 27.4546Z" fill="#3F3F3F"/>
</svg>
