<svg width="50" height="50" viewBox="0 0 50 50" fill="none" xmlns="http://www.w3.org/2000/svg">
<circle cx="25" cy="25" r="25" fill="#E8E8E8"/>
<path d="M36.6349 23.276L35.438 21.041C34.999 20.2203 34.0381 19.8325 33.1471 20.1214L25.0006 22.7772L16.8531 20.1214C15.9602 19.8315 15.0012 20.2203 14.5623 21.041L13.3763 23.255C12.9644 23.9397 12.8864 24.7624 13.1634 25.512C13.4393 26.2617 14.0343 26.8364 14.7923 27.0893L15.0022 27.1593L14.9962 30.7787C14.9962 32.7189 16.2312 34.4351 18.0731 35.0489L22.9348 36.6691C23.5977 36.89 24.2937 37 24.9906 37C25.6876 37 26.3835 36.89 27.0465 36.6691L31.9122 35.0479C33.7551 34.4341 34.994 32.7199 34.995 30.7827V27.1593L35.207 27.0883C35.9649 26.8354 36.5599 26.2607 36.8359 25.511C37.1129 24.7614 37.0349 23.9387 36.6349 23.276ZM14.1013 25.1662C13.9303 24.7024 13.9783 24.1936 14.2463 23.7488L15.4432 21.5138C15.6072 21.2069 15.9232 21.027 16.2562 21.027C16.3512 21.027 16.4472 21.042 16.5422 21.073L24.2607 23.5889L22.2888 27.2223C21.9018 27.867 21.1329 28.1529 20.4219 27.912L15.1092 26.1418C14.6403 25.9858 14.2733 25.63 14.1013 25.1672V25.1662ZM24.4847 35.9774C24.0657 35.9395 23.6517 35.8535 23.2517 35.7196L18.39 34.0993C16.9571 33.6215 15.9952 32.2881 15.9962 30.7787L16.0012 27.4922L20.1049 28.8596C20.3789 28.9505 20.6579 28.9945 20.9319 28.9945C21.8218 28.9945 22.6668 28.5317 23.1567 27.7161L24.4907 25.2601L24.4847 35.9774ZM33.9951 30.7827C33.9951 32.2891 33.0301 33.6215 31.5962 34.0983L26.7305 35.7196C26.3265 35.8545 25.9076 35.9405 25.4846 35.9784L25.4906 25.2252L26.8525 27.7341C27.3325 28.5357 28.1754 28.9945 29.0644 28.9945C29.3394 28.9945 29.6193 28.9505 29.8933 28.8596L33.9951 27.4932V30.7827ZM35.8979 25.1662C35.726 25.629 35.359 25.9838 34.89 26.1408L29.5773 27.911C28.8624 28.1499 28.0964 27.864 27.7215 27.2393L25.7396 23.5879L33.4581 21.072C33.8861 20.931 34.347 21.1199 34.558 21.5128L35.767 23.7698C36.0229 24.1936 36.0709 24.7024 35.8999 25.1652L35.8979 25.1662ZM17.7591 18.8479C17.5661 18.652 17.5681 18.3342 17.7651 18.1413L22.5468 13.4363C23.1267 12.8546 24.0787 12.8536 24.6646 13.4393L26.5495 15.3235C27.1175 14.8157 28.0644 14.8307 28.6124 15.3785L31.3662 18.1303C31.5612 18.3252 31.5612 18.642 31.3662 18.8369C31.1712 19.0319 30.8543 19.0319 30.6593 18.8369L27.9054 16.0852C27.7105 15.8902 27.3935 15.8902 27.1985 16.0852L22.8498 20.3533C22.7518 20.4492 22.6248 20.4972 22.4988 20.4972C22.3688 20.4972 22.2398 20.4472 22.1428 20.3483C21.9498 20.1514 21.9528 19.8345 22.1488 19.6416L25.8346 16.0242L23.9567 14.147C23.7617 13.9521 23.4447 13.9521 23.2497 14.147L18.466 18.8529C18.368 18.9489 18.242 18.9969 18.1151 18.9969C17.9861 18.9969 17.8561 18.9469 17.7591 18.8479Z" fill="#3F3F3F"/>
</svg>
