<svg width="50" height="50" viewBox="0 0 50 50" fill="none" xmlns="http://www.w3.org/2000/svg">
<circle cx="25" cy="25" r="25" fill="#E8E8E8"/>
<path fill-rule="evenodd" clip-rule="evenodd" d="M21.8995 17.3306C21.2142 17.3306 20.557 17.6092 20.0725 18.1052C19.5879 18.6011 19.3157 19.2738 19.3157 19.9752C19.3157 20.6766 19.5879 21.3493 20.0725 21.8452C20.557 22.3412 21.2142 22.6198 21.8995 22.6198C22.5847 22.6198 23.2419 22.3412 23.7264 21.8452C24.211 21.3493 24.4832 20.6766 24.4832 19.9752C24.4832 19.2738 24.211 18.6011 23.7264 18.1052C23.2419 17.6092 22.5847 17.3306 21.8995 17.3306ZM19.3417 17.3571C20.0201 16.6628 20.9401 16.2727 21.8995 16.2727C22.8588 16.2727 23.7789 16.6628 24.4572 17.3571C25.1356 18.0515 25.5167 18.9932 25.5167 19.9752C25.5167 20.9571 25.1356 21.8989 24.4572 22.5932C23.7789 23.2876 22.8588 23.6777 21.8995 23.6777C20.9401 23.6777 20.0201 23.2876 19.3417 22.5932C18.6633 21.8989 18.2822 20.9571 18.2822 19.9752C18.2822 18.9932 18.6633 18.0515 19.3417 17.3571ZM27.5837 16.8016C27.5837 16.5095 27.815 16.2727 28.1004 16.2727C29.0598 16.2727 29.9798 16.6628 30.6582 17.3571C31.3365 18.0515 31.7176 18.9932 31.7176 19.9752C31.7176 20.9571 31.3365 21.8989 30.6582 22.5932C29.9798 23.2876 29.0598 23.6777 28.1004 23.6777C27.815 23.6777 27.5837 23.4409 27.5837 23.1487C27.5837 22.8566 27.815 22.6198 28.1004 22.6198C28.7857 22.6198 29.4429 22.3412 29.9274 21.8452C30.4119 21.3493 30.6842 20.6766 30.6842 19.9752C30.6842 19.2738 30.4119 18.6011 29.9274 18.1052C29.4429 17.6092 28.7857 17.3306 28.1004 17.3306C27.815 17.3306 27.5837 17.0937 27.5837 16.8016ZM17.136 28.6131C18.3297 27.2981 20.0088 26.3223 21.8995 26.3223C23.7901 26.3223 25.4693 27.2981 26.6629 28.6131C27.8516 29.9227 28.6172 31.6325 28.6172 33.1983C28.6172 33.4904 28.3858 33.7272 28.1004 33.7272C27.815 33.7272 27.5837 33.4904 27.5837 33.1983C27.5837 31.9598 26.9613 30.496 25.9057 29.3331C24.8551 28.1757 23.4338 27.3801 21.8995 27.3801C20.3651 27.3801 18.9438 28.1757 17.8932 29.3331C16.8376 30.496 16.2153 31.9598 16.2153 33.1983C16.2153 33.4904 15.9839 33.7272 15.6985 33.7272C15.4131 33.7272 15.1818 33.4904 15.1818 33.1983C15.1818 31.6325 15.9474 29.9227 17.136 28.6131ZM29.6702 26.9961C29.7478 26.715 30.0334 26.5515 30.308 26.631C31.6722 27.026 32.7964 28.0964 33.5704 29.3128C34.3448 30.5298 34.8181 31.9689 34.8181 33.1983C34.8181 33.4904 34.5868 33.7272 34.3014 33.7272C34.016 33.7272 33.7846 33.4904 33.7846 33.1983C33.7846 32.2168 33.3949 30.9753 32.7044 29.8902C32.0135 28.8044 31.0706 27.9512 30.0268 27.649C29.7522 27.5695 29.5925 27.2772 29.6702 26.9961Z" fill="#3F3F3F"/>
</svg>
